<svg fill="currentColor" height="32" viewBox="0 0 32 32" width="32" xmlns="http://www.w3.org/2000/svg">
  <path d="m13.0002 9.00002v2.99998h1v-2.99998z" />
  <path d="m22.1033 9.89646c-1.1618-1.16177-3.0454-1.16176-4.2072.00001l-2.7499 2.74993.7071.7071 2.7499-2.7499c.7713-.77127 2.0217-.77127 2.793 0 .7712.7712.7712 2.0216 0 2.7928l-2.75 2.75.7071.7071 2.75-2.7499c1.1617-1.1618 1.1617-3.0454 0-4.20714z" />
  <path d="m9.89632 22.1035c-1.16176-1.1617-1.16176-3.0453 0-4.2071l2.74998-2.75.7071.7071-2.75 2.75c-.77121.7713-.77121 2.0217 0 2.7929.7713.7713 2.0217.7713 2.7929 0l2.75-2.75.7071.7071-2.75 2.75c-1.1617 1.1618-3.0453 1.1618-4.20708 0z" />
  <path d="m22.9997 19h-3v-1h3z" />
  <path d="m19.0003 20v3h-1v-3z" />
  <path d="m11.9997 13h-3.00001v1h3.00001z" />
</svg>