<svg version="1.1" x="0px" y="0px" width="18.94px" height="18.47px" viewBox="0 0 18.94 18.47">
  <path
    d="M9.47,0C4.24,0,0,4.24,0,9.47c0,4.18,2.71,7.73,6.47,8.98
      c0.47,0.09,0.65-0.21,0.65-0.46c0-0.22-0.01-0.82-0.01-1.61c-2.63,0.57-3.19-1.27-3.19-1.27c-0.43-1.09-1.05-1.38-1.05-1.38
      c-0.86-0.59,0.07-0.58,0.07-0.58c0.95,0.07,1.45,0.98,1.45,0.98c0.84,1.45,2.22,1.03,2.76,0.79c0.09-0.61,0.33-1.03,0.6-1.27
      c-2.1-0.24-4.31-1.05-4.31-4.68c0-1.03,0.37-1.88,0.97-2.54c-0.1-0.24-0.42-1.2,0.09-2.51c0,0,0.79-0.25,2.6,0.97
      c0.76-0.21,1.57-0.32,2.37-0.32c0.8,0,1.61,0.11,2.37,0.32c1.81-1.23,2.6-0.97,2.6-0.97c0.52,1.3,0.19,2.27,0.09,2.51
      c0.61,0.66,0.97,1.51,0.97,2.54c0,3.64-2.21,4.44-4.32,4.67c0.34,0.29,0.64,0.87,0.64,1.75c0,1.27-0.01,2.29-0.01,2.6
      c0,0.25,0.17,0.55,0.65,0.46c3.76-1.25,6.47-4.8,6.47-8.98C18.94,4.24,14.7,0,9.47,0z"
  />
</svg>