<svg width="16" height="16" viewBox="0 0 16 16" fill="none" xmlns="http://www.w3.org/2000/svg">
<path fill-rule="evenodd" clip-rule="evenodd" d="M6.125 5.25C6.74632 5.25 7.25 4.74632 7.25 4.125C7.25 3.50368 6.74632 3 6.125 3C5.50368 3 5 3.50368 5 4.125C5 4.74632 5.50368 5.25 6.125 5.25ZM10.125 5.25C10.7463 5.25 11.25 4.74632 11.25 4.125C11.25 3.50368 10.7463 3 10.125 3C9.50368 3 9 3.50368 9 4.125C9 4.74632 9.50368 5.25 10.125 5.25ZM11.25 8.125C11.25 8.74632 10.7463 9.25 10.125 9.25C9.50368 9.25 9 8.74632 9 8.125C9 7.50368 9.50368 7 10.125 7C10.7463 7 11.25 7.50368 11.25 8.125ZM6.125 9.25C6.74632 9.25 7.25 8.74632 7.25 8.125C7.25 7.50368 6.74632 7 6.125 7C5.50368 7 5 7.50368 5 8.125C5 8.74632 5.50368 9.25 6.125 9.25ZM11.25 12.125C11.25 12.7463 10.7463 13.25 10.125 13.25C9.50368 13.25 9 12.7463 9 12.125C9 11.5037 9.50368 11 10.125 11C10.7463 11 11.25 11.5037 11.25 12.125ZM6.125 13.25C6.74632 13.25 7.25 12.7463 7.25 12.125C7.25 11.5037 6.74632 11 6.125 11C5.50368 11 5 11.5037 5 12.125C5 12.7463 5.50368 13.25 6.125 13.25Z" fill="black"/>
</svg>
