<svg width="12" height="12" viewBox="0 0 12 12" fill="none" xmlns="http://www.w3.org/2000/svg">
<path fill-rule="evenodd" clip-rule="evenodd" d="M4.59375 3.9375C5.05974 3.9375 5.4375 3.55974 5.4375 3.09375C5.4375 2.62776 5.05974 2.25 4.59375 2.25C4.12776 2.25 3.75 2.62776 3.75 3.09375C3.75 3.55974 4.12776 3.9375 4.59375 3.9375ZM7.59375 3.9375C8.05972 3.9375 8.4375 3.55974 8.4375 3.09375C8.4375 2.62776 8.05972 2.25 7.59375 2.25C7.12776 2.25 6.75 2.62776 6.75 3.09375C6.75 3.55974 7.12776 3.9375 7.59375 3.9375ZM8.4375 6.09375C8.4375 6.55974 8.05972 6.9375 7.59375 6.9375C7.12776 6.9375 6.75 6.55974 6.75 6.09375C6.75 5.62776 7.12776 5.25 7.59375 5.25C8.05972 5.25 8.4375 5.62776 8.4375 6.09375ZM4.59375 6.9375C5.05974 6.9375 5.4375 6.55974 5.4375 6.09375C5.4375 5.62776 5.05974 5.25 4.59375 5.25C4.12776 5.25 3.75 5.62776 3.75 6.09375C3.75 6.55974 4.12776 6.9375 4.59375 6.9375ZM8.4375 9.09375C8.4375 9.55972 8.05972 9.9375 7.59375 9.9375C7.12776 9.9375 6.75 9.55972 6.75 9.09375C6.75 8.62778 7.12776 8.25 7.59375 8.25C8.05972 8.25 8.4375 8.62778 8.4375 9.09375ZM4.59375 9.9375C5.05974 9.9375 5.4375 9.55972 5.4375 9.09375C5.4375 8.62778 5.05974 8.25 4.59375 8.25C4.12776 8.25 3.75 8.62778 3.75 9.09375C3.75 9.55972 4.12776 9.9375 4.59375 9.9375Z" fill="currentColor"/>
</svg>
