<svg width="17" height="17" viewBox="0 0 17 17" fill="none" xmlns="http://www.w3.org/2000/svg">
  <path
    d="M8.35612 14.8729C12.038 14.8729 15.0228 11.8881 15.0228 8.20622C15.0228 4.52432 12.038 1.53955 8.35612 1.53955C4.67422 1.53955 1.68945 4.52432 1.68945 8.20622C1.68945 11.8881 4.67422 14.8729 8.35612 14.8729Z"
    stroke="currentColor"
    strokeLinecap="round"
    strokeLinejoin="round"
  />
  <path
    d="M6.41626 6.20595C6.573 5.76039 6.88236 5.38468 7.28956 5.14537C7.69676 4.90605 8.17552 4.81857 8.64104 4.89842C9.10656 4.97827 9.5288 5.2203 9.83298 5.58163C10.1372 5.94297 10.3036 6.40029 10.3029 6.87261C10.3029 8.20595 8.30293 8.87261 8.30293 8.87261"
    stroke="currentColor"
    strokeLinecap="round"
    strokeLinejoin="round"
  />
  <path d="M8.3562 11.5396H8.36287" stroke="currentColor" strokeLinecap="round" strokeLinejoin="round" />
</svg>