<svg width="16" height="16" viewBox="0 0 16 16" fill="none" xmlns="http://www.w3.org/2000/svg">
  <path
    fillRule="evenodd"
    clipRule="evenodd"
    d="M7 1C6.44772 1 6 1.44772 6 2H10C10 1.44772 9.55228 1 9 1H7ZM11 2C11 0.895431 10.1046 0 9 0H7C5.89543 0 5 0.895431 5 2H3.5H2V3H3V13C3 14.1046 3.89543 15 5 15H11C12.1046 15 13 14.1046 13 13V3H14V2H12.5H11ZM12 3H10.5H5.5H4V13C4 13.5523 4.44772 14 5 14H11C11.5523 14 12 13.5523 12 13V3ZM6 10V6H7V10H6ZM9 10V6H10V10H9Z"
    fill="currentColor"
  />
</svg>