<svg width="12" height="14" viewBox="0 0 12 14" fill="none" xmlns="http://www.w3.org/2000/svg">
    <path fill-rule="evenodd" clip-rule="evenodd" d="M11.33 5.83664L6.82337 9.34331C6.34337 9.72331 5.66337 9.72331 5.18337 9.34998L0.676706 5.84331C0.336706 5.57664 0.336706 5.05664 0.676706 4.78998L5.18337 1.27664C5.67004 0.90331 6.34337 0.90331 6.82337 1.27664L11.33 4.78331C11.67 5.04998 11.67 5.56998 11.33 5.83664ZM5.58337 11.3566C5.82337 11.5433 6.16337 11.5433 6.40337 11.3566L10.5034 8.16331C10.7424 7.97665 11.0777 7.97665 11.3167 8.16331L11.3234 8.16998C11.6634 8.43664 11.6634 8.94998 11.3234 9.21664L6.81671 12.7233C6.33004 13.0966 5.65671 13.0966 5.17671 12.7233L0.670039 9.21664C0.330039 8.94998 0.330039 8.43664 0.670039 8.16998C0.909023 7.98332 1.24439 7.98332 1.48337 8.16998L5.58337 11.3566Z" fill="currentColor"/>
</svg>