<svg width="16" height="16" viewBox="0 0 16 16" fill="none" xmlns="http://www.w3.org/2000/svg">
<path d="M14.5 8C14.5 8.27614 14.7239 8.5 15 8.5C15.2761 8.5 15.5 8.27614 15.5 8H14.5ZM5 14.5C5.27614 14.5 5.5 14.2761 5.5 14C5.5 13.7239 5.27614 13.5 5 13.5V14.5ZM14.5 3V8H15.5V3H14.5ZM2 2.5H14V1.5H2V2.5ZM1.5 13V3H0.5V13H1.5ZM5 13.5H2V14.5H5V13.5ZM2 1.5C1.17157 1.5 0.5 2.17157 0.5 3H1.5C1.5 2.72386 1.72386 2.5 2 2.5V1.5ZM0.5 13C0.5 13.8284 1.17157 14.5 2 14.5V13.5C1.72386 13.5 1.5 13.2761 1.5 13H0.5ZM15.5 3C15.5 2.17157 14.8284 1.5 14 1.5V2.5C14.2761 2.5 14.5 2.72386 14.5 3H15.5ZM0.5 5.5H15.5V4.5H0.5V5.5ZM3.5 1.5V5H4.5V1.5H3.5ZM7 1.5V4.5H8V1.5H7Z" fill="currentColor"/>
<path fill-rule="evenodd" clip-rule="evenodd" d="M8.60957 13.6877C8.43706 13.9033 8.47202 14.2179 8.68765 14.3904C8.90328 14.5629 9.21793 14.528 9.39043 14.3124L13.3904 9.31235C13.5629 9.09672 13.528 8.78207 13.3123 8.60957C13.0967 8.43706 12.7821 8.47202 12.6096 8.68766L8.60957 13.6877ZM11 14.5C10.8596 14.5 10.7327 14.4421 10.6419 14.3489L11.321 13.5H12.5C13.6046 13.5 14.5 12.6046 14.5 11.5C14.5 10.9869 14.3068 10.5189 13.9891 10.1648L14.1713 9.93705L14.6195 9.37686C15.1635 9.91989 15.5 10.6706 15.5 11.5C15.5 13.1569 14.1569 14.5 12.5 14.5H11ZM6.5 11.5C6.5 12.295 6.9639 12.9817 7.63578 13.3042L7.00012 14.0987C6.10335 13.58 5.5 12.6105 5.5 11.5C5.5 9.84315 6.84315 8.5 8.5 8.5H10C10.2761 8.5 10.5 8.72386 10.5 9C10.5 9.27615 10.2761 9.5 10 9.5H8.5C7.39543 9.5 6.5 10.3954 6.5 11.5Z" fill="var(--colors-dangerFg)"/>
</svg>