<svg width="16" height="16" viewBox="0 0 16 16" fill="none" xmlns="http://www.w3.org/2000/svg">
<path fill-rule="evenodd" clip-rule="evenodd" d="M6.5 11.5C6.5 10.3954 7.39543 9.5 8.5 9.5H9C9.27614 9.5 9.5 9.27614 9.5 9C9.5 8.72386 9.27614 8.5 9 8.5H8.5C6.84315 8.5 5.5 9.84315 5.5 11.5C5.5 13.1569 6.84315 14.5 8.5 14.5H9C9.27614 14.5 9.5 14.2761 9.5 14C9.5 13.7239 9.27614 13.5 9 13.5H8.5C7.39543 13.5 6.5 12.6046 6.5 11.5ZM14.5 11.5C14.5 10.3954 13.6046 9.5 12.5 9.5H12C11.7239 9.5 11.5 9.27614 11.5 9C11.5 8.72386 11.7239 8.5 12 8.5H12.5C14.1569 8.5 15.5 9.84315 15.5 11.5C15.5 13.1569 14.1569 14.5 12.5 14.5H12C11.7239 14.5 11.5 14.2761 11.5 14C11.5 13.7239 11.7239 13.5 12 13.5H12.5C13.6046 13.5 14.5 12.6046 14.5 11.5Z" fill="currentcolor"/>
<path d="M14.5 8C14.5 8.27614 14.7239 8.5 15 8.5C15.2761 8.5 15.5 8.27614 15.5 8H14.5ZM5 14.5C5.27614 14.5 5.5 14.2761 5.5 14C5.5 13.7239 5.27614 13.5 5 13.5V14.5ZM14.5 3V8H15.5V3H14.5ZM2 2.5H14V1.5H2V2.5ZM1.5 13V3H0.5V13H1.5ZM5 13.5H2V14.5H5V13.5ZM2 1.5C1.17157 1.5 0.5 2.17157 0.5 3H1.5C1.5 2.72386 1.72386 2.5 2 2.5V1.5ZM0.5 13C0.5 13.8284 1.17157 14.5 2 14.5V13.5C1.72386 13.5 1.5 13.2761 1.5 13H0.5ZM15.5 3C15.5 2.17157 14.8284 1.5 14 1.5V2.5C14.2761 2.5 14.5 2.72386 14.5 3H15.5ZM0.5 5.5H15.5V4.5H0.5V5.5ZM3.5 1.5V5H4.5V1.5H3.5ZM7 1.5V4.5H8V1.5H7Z" fill="currentcolor"/>
</svg>