<svg width="17" height="16" viewBox="0 0 17 16" fill="none" xmlns="http://www.w3.org/2000/svg">
    <path d="M2.29688 11H1.28125L4.21875 3H5.21875L8.15625 11H7.14062L4.75 4.26562H4.6875L2.29688 11ZM2.67188 7.875H6.76562V8.73438H2.67188V7.875Z" fill="currentColor"/>
    <path d="M11.8092 13.375C11.3639 13.375 10.9811 13.3177 10.6608 13.2031C10.3405 13.0911 10.0735 12.9427 9.86 12.7578C9.64906 12.5755 9.48109 12.3802 9.35609 12.1719L10.0905 11.6562C10.1738 11.7656 10.2793 11.8906 10.4069 12.0312C10.5345 12.1745 10.709 12.2982 10.9303 12.4023C11.1543 12.5091 11.4472 12.5625 11.8092 12.5625C12.2936 12.5625 12.6933 12.4453 13.0084 12.2109C13.3235 11.9766 13.4811 11.6094 13.4811 11.1094V9.89062H13.403C13.3353 10 13.2389 10.1354 13.1139 10.2969C12.9915 10.4557 12.8144 10.5977 12.5827 10.7227C12.3535 10.8451 12.0436 10.9062 11.653 10.9062C11.1686 10.9062 10.7337 10.7917 10.3483 10.5625C9.96547 10.3333 9.66208 10 9.43813 9.5625C9.21677 9.125 9.10609 8.59375 9.10609 7.96875C9.10609 7.35417 9.21417 6.81901 9.43031 6.36328C9.64646 5.90495 9.94724 5.55078 10.3327 5.30078C10.7181 5.04818 11.1634 4.92188 11.6686 4.92188C12.0592 4.92188 12.3691 4.98698 12.5983 5.11719C12.8301 5.24479 13.0071 5.39062 13.1295 5.55469C13.2545 5.71615 13.3509 5.84896 13.4186 5.95312H13.5123V5H14.403V11.1719C14.403 11.6875 14.2858 12.1068 14.0514 12.4297C13.8196 12.7552 13.5071 12.9935 13.1139 13.1445C12.7233 13.2982 12.2884 13.375 11.8092 13.375ZM11.778 10.0781C12.1478 10.0781 12.4603 9.99349 12.7155 9.82422C12.9707 9.65495 13.1647 9.41146 13.2975 9.09375C13.4303 8.77604 13.4967 8.39583 13.4967 7.95312C13.4967 7.52083 13.4316 7.13932 13.3014 6.80859C13.1712 6.47786 12.9785 6.21875 12.7233 6.03125C12.4681 5.84375 12.153 5.75 11.778 5.75C11.3873 5.75 11.0618 5.84896 10.8014 6.04688C10.5436 6.24479 10.3496 6.51042 10.2194 6.84375C10.0918 7.17708 10.028 7.54688 10.028 7.95312C10.028 8.36979 10.0931 8.73828 10.2233 9.05859C10.3561 9.3763 10.5514 9.6263 10.8092 9.80859C11.0696 9.98828 11.3926 10.0781 11.778 10.0781Z" fill="currentColor"/>
</svg>
