<svg width="28" height="28" viewBox="0 0 28 28" fill="currentColor" xmlns="http://www.w3.org/2000/svg">
  <path d="M12.6569 9.82843L18.3137 4.17157C19.8758 2.60948 22.4085 2.60948 23.9706 4.17157C25.5327 5.73367 25.5327 8.26633 23.9706 9.82843L18.3137 15.4853L19.7279 16.8995L25.3848 11.2426C27.7279 8.8995 27.7279 5.10051 25.3848 2.75736C23.0416 0.414214 19.2426 0.414213 16.8995 2.75736L11.2426 8.41421L12.6569 9.82843Z" />
  <path d="M9.82843 12.6569L4.17157 18.3137C2.60948 19.8758 2.60948 22.4085 4.17157 23.9706C5.73367 25.5327 8.26633 25.5327 9.82843 23.9706L15.4853 18.3137L16.8995 19.7279L11.2426 25.3848C8.89949 27.7279 5.10051 27.7279 2.75736 25.3848C0.414214 23.0416 0.414213 19.2426 2.75736 16.8995L8.41421 11.2426L9.82843 12.6569Z" />
  <path d="M9.51472 6.51472V1.51472H11.5147V6.51472H9.51472Z" />
  <path d="M2.51472 8.51472H7.51472V10.5147H2.51472V8.51472Z" />
  <path d="M19.5147 25.5147V20.5147H17.5147V25.5147H19.5147Z" />
  <path d="M21.5147 18.5147H26.5147V16.5147H21.5147V18.5147Z" />
  </svg>
  