<svg width="24" height="24" viewBox="0 0 24 24" fill="none" xmlns="http://www.w3.org/2000/svg">
  <path fillRule="evenodd" clipRule="evenodd" d="M20.1796 3.1313C19.8609 3.37036 3.05619 20.2219 3.02338 20.3344C2.91088 20.7141 3.26244 21.075 3.64213 20.9766C3.72651 20.9579 4.31244 20.4094 5.32026 19.4016L6.87182 17.8594L7.33588 18.0469C8.43744 18.4969 9.73588 18.825 10.8656 18.9422C11.6203 19.0172 13.0078 18.975 13.664 18.8485C16.3124 18.3469 19.0828 16.8422 21.7734 14.4375C22.4062 13.875 23.7796 12.4782 23.9062 12.2719C24.0234 12.075 24.0234 11.925 23.9062 11.7329C23.7796 11.5219 22.4906 10.2141 21.8484 9.63755C20.7984 8.70005 19.6078 7.80005 18.5249 7.13443L17.9531 6.77817L19.4484 5.27818C20.2687 4.44849 20.9578 3.72193 20.9765 3.66568C21.0656 3.36568 20.864 3.0563 20.5453 3.01411C20.3999 2.99536 20.3343 3.0188 20.1796 3.1313ZM17.9484 7.95474C19.3359 8.81255 20.7328 9.9188 22.064 11.2219L22.8515 11.9954L22.3828 12.4688C20.4515 14.4282 18.1593 16.1016 16.1859 16.9922C13.7953 18.0704 11.6859 18.2625 9.22026 17.6297C8.75151 17.5079 7.88432 17.2125 7.70151 17.1141C7.66401 17.0954 7.98744 16.7391 8.59682 16.1297L9.55307 15.1735L9.80619 15.3375C10.4578 15.7688 11.0109 15.9422 11.8359 15.9704C12.5296 15.9985 12.8765 15.9422 13.4765 15.7079C14.7281 15.225 15.7078 14.0204 15.9421 12.675C15.9749 12.4875 15.989 12.1313 15.9749 11.7938C15.9421 11.0907 15.7734 10.5235 15.4218 9.93755L15.1828 9.5438L16.1812 8.54536C16.7296 7.99692 17.2031 7.54692 17.2312 7.54692C17.2593 7.54692 17.5828 7.72974 17.9484 7.95474ZM14.7234 10.7485C15.1312 11.6204 15.0703 12.6844 14.5687 13.5375C14.3718 13.875 13.8749 14.3719 13.5374 14.5688C12.6421 15.0985 11.5921 15.1313 10.6453 14.6672L10.2515 14.475L12.3562 12.3704C12.5768 12.1498 12.7745 11.9513 12.9519 11.7733C14.0779 10.6431 14.3856 10.3343 14.5306 10.3977C14.5852 10.4215 14.6168 10.498 14.6602 10.6032C14.6783 10.6472 14.6985 10.6962 14.7234 10.7485ZM11.0391 5.0439C9.67969 5.23608 8.62031 5.54077 7.43438 6.07514C5.325 7.02202 3.28594 8.4892 1.23281 10.5236C0.178125 11.5736 0 11.7845 0 12.0048C0 12.3986 1.85625 14.4376 3.225 15.5533C3.87188 16.0783 4.62188 16.6173 4.8 16.6876C5.10469 16.8001 5.4375 16.547 5.4375 16.2048C5.4375 15.9798 5.3625 15.9048 4.51406 15.2814C3.81094 14.7658 2.99062 14.0486 2.34375 13.3783C1.76719 12.7876 1.17188 12.0939 1.17188 12.0189C1.17188 11.9626 2.28281 10.8658 2.88281 10.3361C4.42031 8.97202 5.97656 7.89858 7.47656 7.17202C10.0547 5.92046 12.2063 5.69546 14.6484 6.42671C15.1922 6.58608 15.3141 6.57671 15.4922 6.36577C15.6609 6.16889 15.6516 5.89702 15.4781 5.71889C15.3047 5.55014 14.55 5.32046 13.5234 5.12827C13.1203 5.05327 11.3906 4.99702 11.0391 5.0439ZM9.18287 9.18294C9.75006 8.62044 10.4016 8.2595 11.1797 8.08138C11.5829 7.98763 12.6235 8.02044 12.8344 8.12825C13.1391 8.28763 13.186 8.70481 12.9329 8.9345C12.8438 9.01419 12.7501 9.02356 12.1219 9.02356C11.4751 9.02825 11.386 9.03763 11.0719 9.15013C10.2891 9.43138 9.68444 9.95637 9.33756 10.6407C9.06569 11.1845 8.98131 11.6017 9.0235 12.2579C9.05162 12.7361 9.04694 12.7876 8.95319 12.9001C8.72819 13.1861 8.29225 13.1532 8.12819 12.8345C8.011 12.6142 7.98287 11.6673 8.07662 11.2267C8.25006 10.4204 8.60162 9.76887 9.18287 9.18294Z" fill="currentColor" />
</svg>