<?xml version="1.0" encoding="UTF-8"?>
<svg xmlns="http://www.w3.org/2000/svg" xmlns:xlink="http://www.w3.org/1999/xlink" width="75px" height="75px" viewBox="0 0 75 75" version="1.1">
<defs>
<filter id="alpha" filterUnits="objectBoundingBox" x="0%" y="0%" width="100%" height="100%">
  <feColorMatrix type="matrix" in="SourceGraphic" values="0 0 0 0 1 0 0 0 0 1 0 0 0 0 1 0 0 0 1 0"/>
</filter>
<mask id="mask0">
  <g filter="url(#alpha)">
<rect x="0" y="0" width="75" height="75" style="fill:rgb(0%,0%,0%);fill-opacity:0.2;stroke:none;"/>
  </g>
</mask>
<clipPath id="clip1">
  <rect x="0" y="0" width="75" height="75"/>
</clipPath>
<g id="surface5" clip-path="url(#clip1)">
<path style=" stroke:none;fill-rule:nonzero;fill:rgb(22.352941%,0%,36.470588%);fill-opacity:1;" d="M 58.332031 27.371094 C 56.425781 20.035156 48.566406 15.667969 43.355469 14.835938 C 42.128906 14.640625 39.929688 14.457031 37.695312 14.449219 C 35.488281 14.441406 33.832031 14.421875 31.75 14.835938 C 29.960938 15.191406 27.113281 15.789062 24.316406 17.957031 C 22.175781 19.613281 20.859375 21.574219 20.0625 23.121094 C 20.734375 22.320312 21.632812 21.359375 22.796875 20.386719 C 24.21875 19.199219 25.441406 18.484375 25.835938 18.257812 C 26.664062 17.789062 28.777344 16.664062 31.753906 16.050781 C 33.824219 15.625 35.363281 15.65625 37.695312 15.664062 C 40.128906 15.671875 42.316406 15.882812 43.355469 16.050781 C 49.320312 17.019531 56.890625 22.460938 57.597656 29.519531 C 57.644531 29.96875 57.664062 30.480469 57.640625 31.042969 C 57.632812 31.054688 57.625 31.066406 57.617188 31.078125 C 57.613281 31.230469 57.605469 31.640625 57.53125 32.203125 C 57.449219 32.78125 57.320312 33.394531 57.121094 34.054688 C 57.070312 34.242188 57.015625 34.433594 56.964844 34.625 C 56.511719 35.910156 55.742188 37.316406 54.433594 38.445312 C 53.878906 38.921875 52.121094 40.398438 49.511719 40.714844 C 48.445312 40.84375 47.726562 40.722656 44.761719 40.109375 C 38.203125 38.753906 38.402344 38.667969 37.554688 38.667969 C 36.707031 38.667969 36.902344 38.753906 30.34375 40.109375 C 27.382812 40.722656 26.664062 40.84375 25.597656 40.714844 C 22.984375 40.398438 21.230469 38.921875 20.675781 38.445312 C 18.800781 36.828125 17.640625 33.925781 17.492188 31.082031 C 17.320312 34.28125 18.53125 37.808594 20.675781 39.660156 C 21.230469 40.136719 22.984375 41.613281 25.597656 41.929688 C 26.664062 42.058594 27.382812 41.9375 30.34375 41.324219 C 36.90625 39.96875 36.707031 39.882812 37.554688 39.882812 C 38.402344 39.882812 38.203125 39.96875 44.761719 41.324219 C 47.722656 41.9375 48.441406 42.058594 49.511719 41.929688 C 51.839844 41.648438 53.574219 40.335938 54.433594 39.660156 C 55.1875 39.066406 56.699219 37.851562 57.726562 35.875 C 59.605469 32.261719 58.621094 28.480469 58.332031 27.371094 Z M 58.332031 27.371094 "/>
</g>
<mask id="mask1">
  <g filter="url(#alpha)">
<rect x="0" y="0" width="75" height="75" style="fill:rgb(0%,0%,0%);fill-opacity:0.301961;stroke:none;"/>
  </g>
</mask>
<clipPath id="clip2">
  <rect x="0" y="0" width="75" height="75"/>
</clipPath>
<g id="surface8" clip-path="url(#clip2)">
<path style=" stroke:none;fill-rule:nonzero;fill:rgb(22.352941%,0%,36.470588%);fill-opacity:1;" d="M 47.554688 33.273438 C 45.503906 33.273438 43.828125 31.648438 43.742188 29.621094 C 43.738281 29.675781 43.738281 29.726562 43.738281 29.78125 C 43.738281 31.886719 45.449219 33.601562 47.554688 33.601562 C 49.65625 33.601562 51.371094 31.886719 51.371094 29.78125 C 51.371094 29.726562 51.367188 29.675781 51.363281 29.621094 C 51.28125 31.648438 49.605469 33.273438 47.554688 33.273438 Z M 47.554688 33.273438 "/>
</g>
<mask id="mask2">
  <g filter="url(#alpha)">
<rect x="0" y="0" width="75" height="75" style="fill:rgb(0%,0%,0%);fill-opacity:0.301961;stroke:none;"/>
  </g>
</mask>
<clipPath id="clip3">
  <rect x="0" y="0" width="75" height="75"/>
</clipPath>
<g id="surface11" clip-path="url(#clip3)">
<path style=" stroke:none;fill-rule:nonzero;fill:rgb(22.352941%,0%,36.470588%);fill-opacity:1;" d="M 27.445312 33.273438 C 25.394531 33.273438 23.71875 31.648438 23.632812 29.621094 C 23.628906 29.675781 23.625 29.726562 23.625 29.78125 C 23.625 31.886719 25.339844 33.601562 27.445312 33.601562 C 29.546875 33.601562 31.261719 31.886719 31.261719 29.78125 C 31.261719 29.726562 31.257812 29.675781 31.253906 29.621094 C 31.171875 31.648438 29.496094 33.273438 27.445312 33.273438 Z M 27.445312 33.273438 "/>
</g>
<mask id="mask3">
  <g filter="url(#alpha)">
<rect x="0" y="0" width="75" height="75" style="fill:rgb(0%,0%,0%);fill-opacity:0.4;stroke:none;"/>
  </g>
</mask>
<clipPath id="clip4">
  <rect x="0" y="0" width="75" height="75"/>
</clipPath>
<g id="surface14" clip-path="url(#clip4)">
<path style=" stroke:none;fill-rule:nonzero;fill:rgb(22.352941%,0%,36.470588%);fill-opacity:1;" d="M 49.1875 36.632812 C 49.140625 36.441406 48.929688 36.324219 48.71875 36.363281 C 48.503906 36.40625 48.371094 36.59375 48.417969 36.78125 C 48.417969 36.785156 48.472656 37.007812 48.332031 37.125 C 48.203125 37.234375 47.960938 37.207031 47.867188 37.195312 C 47.445312 37.148438 47.148438 36.855469 46.96875 36.679688 L 46.925781 36.640625 C 45.675781 35.425781 43.582031 34.753906 42.742188 34.671875 C 42.25 34.625 41.582031 34.546875 40.242188 34.671875 C 38.484375 34.835938 38.363281 35.285156 37.5 35.285156 C 36.636719 35.285156 36.515625 34.835938 34.757812 34.671875 C 33.421875 34.546875 32.75 34.625 32.257812 34.671875 C 31.417969 34.753906 29.324219 35.425781 28.074219 36.640625 L 28.03125 36.679688 C 27.851562 36.855469 27.554688 37.148438 27.132812 37.195312 C 27.039062 37.207031 26.796875 37.234375 26.667969 37.125 C 26.527344 37.007812 26.582031 36.785156 26.582031 36.78125 C 26.628906 36.59375 26.496094 36.40625 26.28125 36.363281 C 26.070312 36.324219 25.859375 36.441406 25.8125 36.632812 C 25.789062 36.730469 25.683594 37.253906 26.121094 37.628906 C 26.386719 37.855469 26.761719 37.941406 27.234375 37.886719 C 27.945312 37.808594 28.402344 37.359375 28.617188 37.144531 L 28.65625 37.109375 C 29.726562 36.070312 31.589844 35.789062 32.34375 35.714844 C 33.210938 35.632812 34.015625 35.785156 34.574219 35.875 C 36.367188 36.164062 36.433594 36.554688 37.5 36.554688 C 38.566406 36.554688 38.636719 36.164062 40.429688 35.875 C 40.988281 35.785156 41.789062 35.632812 42.660156 35.714844 C 43.410156 35.789062 45.277344 36.070312 46.347656 37.109375 L 46.382812 37.144531 C 46.601562 37.359375 47.058594 37.808594 47.769531 37.886719 C 48.238281 37.941406 48.613281 37.855469 48.878906 37.628906 C 49.316406 37.253906 49.210938 36.730469 49.1875 36.632812 Z M 49.1875 36.632812 "/>
</g>
</defs>
<g id="surface1">
<path style=" stroke:none;fill-rule:nonzero;fill:rgb(22.352941%,0%,36.470588%);fill-opacity:1;" d="M 24.554688 13.097656 C 24.394531 12.878906 24.089844 12.585938 23.699219 12.257812 L 21.28125 10.242188 C 20.964844 9.976562 20.792969 9.808594 20.304688 9.292969 C 20.539062 9.675781 20.890625 10.273438 20.976562 10.441406 L 22.253906 12.902344 C 22.523438 13.421875 22.6875 13.699219 22.882812 13.96875 L 21.832031 14.515625 C 21.722656 14.191406 21.585938 13.890625 21.324219 13.386719 L 19.367188 9.621094 C 19.113281 9.132812 18.9375 8.824219 18.730469 8.539062 L 20.101562 7.824219 C 20.292969 8.0625 20.554688 8.328125 20.84375 8.574219 L 24.300781 11.507812 L 23.882812 6.996094 C 23.84375 6.550781 23.785156 6.277344 23.691406 5.960938 L 25.070312 5.246094 C 25.214844 5.628906 25.328125 5.882812 25.589844 6.386719 L 27.542969 10.15625 C 27.828125 10.703125 27.984375 10.964844 28.171875 11.21875 L 27.125 11.765625 C 27.011719 11.433594 26.882812 11.15625 26.613281 10.636719 L 25.320312 8.148438 C 25.015625 7.480469 24.839844 7.085938 24.785156 6.96875 C 24.898438 7.425781 24.976562 7.917969 25.007812 8.242188 L 25.253906 11.46875 C 25.289062 11.902344 25.371094 12.390625 25.441406 12.640625 Z M 24.554688 13.097656 "/>
<path style=" stroke:none;fill-rule:nonzero;fill:rgb(22.352941%,0%,36.470588%);fill-opacity:1;" d="M 28.90625 4.191406 C 28.945312 4.511719 29 4.769531 29.136719 5.257812 L 30.371094 9.636719 C 30.507812 10.117188 30.597656 10.375 30.730469 10.667969 L 29.496094 11.019531 C 29.457031 10.695312 29.398438 10.429688 29.261719 9.949219 L 28.03125 5.570312 C 27.886719 5.066406 27.808594 4.851562 27.671875 4.539062 Z M 28.90625 4.191406 "/>
<path style=" stroke:none;fill-rule:nonzero;fill:rgb(22.352941%,0%,36.470588%);fill-opacity:1;" d="M 36.285156 9.808594 C 36.246094 9.605469 36.058594 9.191406 35.707031 8.507812 C 35.132812 7.390625 34.804688 7.113281 34.160156 7.179688 L 32.90625 7.308594 L 33.082031 9.023438 C 33.136719 9.53125 33.179688 9.796875 33.265625 10.121094 L 32.011719 10.25 C 32.023438 9.890625 32.015625 9.660156 31.964844 9.148438 L 31.496094 4.613281 C 31.449219 4.167969 31.40625 3.917969 31.3125 3.527344 C 31.667969 3.507812 31.929688 3.492188 32.394531 3.441406 L 34.410156 3.234375 C 35.691406 3.101562 36.488281 3.664062 36.601562 4.777344 C 36.660156 5.3125 36.558594 5.75 36.304688 6.074219 C 36.09375 6.34375 35.886719 6.472656 35.417969 6.660156 C 35.96875 6.769531 36.152344 6.992188 37.1875 8.871094 C 37.269531 9.019531 37.527344 9.449219 37.667969 9.664062 Z M 34.5 6.175781 C 34.808594 6.140625 35.09375 6 35.265625 5.789062 C 35.425781 5.59375 35.492188 5.339844 35.457031 5.023438 C 35.398438 4.417969 35.019531 4.140625 34.328125 4.210938 L 32.605469 4.390625 L 32.804688 6.347656 Z M 34.5 6.175781 "/>
<path style=" stroke:none;fill-rule:nonzero;fill:rgb(22.352941%,0%,36.470588%);fill-opacity:1;" d="M 43.273438 10.371094 C 43.261719 10.089844 43.222656 9.714844 43.164062 9.460938 L 42.960938 8.5 L 40.28125 8.117188 L 39.820312 8.980469 C 39.609375 9.363281 39.558594 9.484375 39.441406 9.824219 L 38.070312 9.628906 C 38.226562 9.421875 38.449219 9.070312 38.65625 8.703125 L 41.183594 4.136719 C 41.402344 3.738281 41.5 3.542969 41.574219 3.328125 L 43.027344 3.535156 C 43.042969 3.742188 43.074219 3.882812 43.195312 4.421875 L 44.363281 9.519531 C 44.496094 10.085938 44.5625 10.332031 44.648438 10.566406 Z M 42.253906 4.886719 C 42.234375 4.792969 42.222656 4.6875 42.171875 4.398438 C 41.980469 4.773438 41.980469 4.773438 41.945312 4.84375 L 40.71875 7.199219 L 42.796875 7.496094 Z M 42.253906 4.886719 "/>
<path style=" stroke:none;fill-rule:nonzero;fill:rgb(22.352941%,0%,36.470588%);fill-opacity:1;" d="M 53.273438 6.859375 C 53.09375 7.15625 52.980469 7.382812 52.792969 7.828125 L 51.023438 12.03125 C 50.832031 12.480469 50.753906 12.714844 50.664062 13.0625 L 49.503906 12.574219 C 49.679688 12.289062 49.796875 12.054688 49.988281 11.59375 L 50.730469 9.832031 L 47.597656 8.515625 L 46.855469 10.273438 C 46.667969 10.726562 46.582031 10.96875 46.496094 11.308594 L 45.335938 10.816406 C 45.507812 10.542969 45.628906 10.296875 45.820312 9.839844 L 47.585938 5.644531 C 47.78125 5.183594 47.863281 4.9375 47.945312 4.613281 L 49.105469 5.101562 C 48.921875 5.410156 48.796875 5.660156 48.625 6.074219 L 47.992188 7.578125 L 51.125 8.898438 L 51.753906 7.402344 C 51.941406 6.957031 52.042969 6.667969 52.113281 6.367188 Z M 53.273438 6.859375 "/>
<path style=" stroke:none;fill-rule:nonzero;fill:rgb(22.352941%,0%,36.470588%);fill-opacity:1;" d="M 56.503906 8.929688 C 56.285156 9.171875 56.128906 9.382812 55.851562 9.808594 L 53.367188 13.621094 C 53.09375 14.035156 52.960938 14.273438 52.828125 14.570312 L 51.75 13.867188 C 51.96875 13.625 52.128906 13.40625 52.402344 12.988281 L 54.886719 9.179688 C 55.171875 8.738281 55.28125 8.539062 55.425781 8.226562 Z M 56.503906 8.929688 "/>
<path style=" stroke:none;fill-rule:nonzero;fill:rgb(22.352941%,0%,36.470588%);fill-opacity:1;" d="M 37.5 75 C 27.484375 75 18.066406 71.101562 10.984375 64.015625 C 3.898438 56.933594 0 47.515625 0 37.5 C 0 27.484375 3.898438 18.066406 10.984375 10.984375 C 18.066406 3.898438 27.484375 0 37.5 0 C 47.515625 0 56.933594 3.898438 64.015625 10.984375 C 71.101562 18.066406 75 27.484375 75 37.5 C 75 47.515625 71.101562 56.933594 64.015625 64.015625 C 56.933594 71.101562 47.515625 75 37.5 75 Z M 37.5 1.304688 C 27.832031 1.304688 18.742188 5.070312 11.90625 11.90625 C 5.070312 18.742188 1.304688 27.832031 1.304688 37.5 C 1.304688 47.167969 5.070312 56.257812 11.90625 63.09375 C 18.742188 69.929688 27.832031 73.695312 37.5 73.695312 C 47.167969 73.695312 56.257812 69.929688 63.09375 63.09375 C 69.929688 56.257812 73.695312 47.167969 73.695312 37.5 C 73.695312 27.832031 69.929688 18.742188 63.09375 11.90625 C 56.257812 5.070312 47.167969 1.304688 37.5 1.304688 Z M 37.5 1.304688 "/>
<path style=" stroke:none;fill-rule:nonzero;fill:rgb(22.352941%,0%,36.470588%);fill-opacity:1;" d="M 21.128906 66.234375 C 20.679688 66.640625 20.382812 66.828125 20.003906 66.960938 C 19.304688 67.183594 18.476562 67.027344 17.65625 66.492188 C 16.910156 66.007812 16.460938 65.398438 16.324219 64.695312 C 16.167969 63.882812 16.40625 62.9375 16.972656 62.0625 C 17.558594 61.160156 18.363281 60.554688 19.207031 60.375 C 19.886719 60.226562 20.65625 60.390625 21.335938 60.835938 C 21.871094 61.183594 22.207031 61.546875 22.4375 62.015625 C 22.617188 62.40625 22.703125 62.820312 22.675781 63.234375 C 22.667969 63.429688 22.632812 63.582031 22.546875 63.898438 L 21.453125 63.5 C 21.554688 63.136719 21.578125 62.964844 21.542969 62.71875 C 21.492188 62.289062 21.246094 61.921875 20.820312 61.648438 C 19.847656 61.015625 18.769531 61.390625 17.949219 62.652344 C 17.140625 63.902344 17.234375 65.070312 18.191406 65.691406 C 18.671875 66.003906 19.199219 66.085938 19.628906 65.90625 C 19.855469 65.8125 20.003906 65.703125 20.261719 65.425781 Z M 21.128906 66.234375 "/>
<path style=" stroke:none;fill-rule:nonzero;fill:rgb(22.352941%,0%,36.470588%);fill-opacity:1;" d="M 28.660156 65.179688 C 29.007812 65.949219 28.992188 66.890625 28.617188 67.882812 C 27.890625 69.8125 26.296875 70.640625 24.566406 69.988281 C 22.835938 69.335938 22.1875 67.675781 22.917969 65.738281 C 23.289062 64.753906 23.914062 64.023438 24.683594 63.683594 C 25.40625 63.363281 26.132812 63.359375 26.941406 63.664062 C 27.78125 63.980469 28.335938 64.46875 28.660156 65.179688 Z M 27.550781 67.480469 C 27.839844 66.710938 27.859375 66.011719 27.617188 65.476562 C 27.417969 65.054688 27.074219 64.742188 26.617188 64.570312 C 25.519531 64.15625 24.496094 64.761719 23.976562 66.144531 C 23.691406 66.90625 23.667969 67.628906 23.917969 68.175781 C 24.113281 68.597656 24.457031 68.910156 24.925781 69.085938 C 26.011719 69.5 27.019531 68.882812 27.550781 67.480469 Z M 27.550781 67.480469 "/>
<path style=" stroke:none;fill-rule:nonzero;fill:rgb(22.352941%,0%,36.470588%);fill-opacity:1;" d="M 32.636719 71.863281 C 32.625 71.601562 32.539062 71.207031 32.40625 70.730469 L 31.554688 67.820312 C 31.441406 67.4375 31.394531 67.210938 31.28125 66.53125 C 31.265625 66.96875 31.222656 67.632812 31.203125 67.8125 L 30.902344 70.46875 C 30.839844 71.027344 30.820312 71.339844 30.832031 71.660156 L 29.695312 71.53125 C 29.78125 71.210938 29.832031 70.898438 29.894531 70.355469 L 30.355469 66.289062 C 30.417969 65.761719 30.4375 65.417969 30.429688 65.082031 L 31.910156 65.25 C 31.933594 65.539062 32.003906 65.890625 32.101562 66.246094 L 33.289062 70.453125 L 35.382812 66.621094 C 35.589844 66.242188 35.695312 65.992188 35.785156 65.691406 L 37.273438 65.859375 C 37.183594 66.242188 37.136719 66.507812 37.074219 67.050781 L 36.613281 71.117188 C 36.546875 71.710938 36.527344 72.003906 36.542969 72.308594 L 35.40625 72.179688 C 35.496094 71.851562 35.542969 71.5625 35.605469 71.003906 L 35.910156 68.316406 C 36.023438 67.613281 36.097656 67.203125 36.117188 67.082031 C 35.960938 67.507812 35.757812 67.945312 35.609375 68.222656 L 34.070312 70.933594 C 33.867188 71.296875 33.667969 71.734375 33.59375 71.972656 Z M 32.636719 71.863281 "/>
<path style=" stroke:none;fill-rule:nonzero;fill:rgb(22.352941%,0%,36.470588%);fill-opacity:1;" d="M 38.996094 72.160156 C 39.007812 71.832031 38.988281 71.546875 38.933594 71.109375 L 38.398438 66.730469 C 38.351562 66.34375 38.300781 66.054688 38.207031 65.695312 C 38.558594 65.671875 38.808594 65.648438 39.238281 65.59375 L 40.929688 65.386719 C 41.714844 65.292969 42.285156 65.410156 42.722656 65.753906 C 43.09375 66.035156 43.320312 66.5 43.394531 67.082031 C 43.46875 67.695312 43.34375 68.222656 43.035156 68.636719 C 42.683594 69.082031 42.15625 69.335938 41.378906 69.429688 L 39.835938 69.621094 L 40 70.972656 C 40.054688 71.40625 40.105469 71.714844 40.191406 72.015625 Z M 41.269531 68.5 C 42.015625 68.410156 42.371094 67.964844 42.285156 67.253906 C 42.246094 66.925781 42.121094 66.671875 41.921875 66.507812 C 41.710938 66.328125 41.433594 66.269531 41.003906 66.324219 L 39.457031 66.511719 L 39.722656 68.6875 Z M 41.269531 68.5 "/>
<path style=" stroke:none;fill-rule:nonzero;fill:rgb(22.352941%,0%,36.470588%);fill-opacity:1;" d="M 50.210938 69.699219 C 50.078125 69.460938 49.886719 69.152344 49.726562 68.957031 L 49.140625 68.214844 L 46.660156 69.027344 L 46.628906 69.972656 C 46.609375 70.390625 46.617188 70.515625 46.660156 70.863281 L 45.390625 71.277344 C 45.4375 71.03125 45.480469 70.628906 45.503906 70.230469 L 45.742188 65.199219 C 45.761719 64.765625 45.761719 64.550781 45.734375 64.335938 L 47.082031 63.894531 C 47.179688 64.066406 47.269531 64.175781 47.601562 64.589844 L 50.785156 68.496094 C 51.140625 68.929688 51.304688 69.117188 51.480469 69.28125 Z M 46.988281 65.390625 C 46.929688 65.316406 46.875 65.230469 46.707031 65.003906 C 46.703125 65.40625 46.703125 65.40625 46.703125 65.488281 L 46.648438 68.042969 L 48.570312 67.414062 Z M 46.988281 65.390625 "/>
<path style=" stroke:none;fill-rule:nonzero;fill:rgb(22.352941%,0%,36.470588%);fill-opacity:1;" d="M 56.8125 66.480469 C 56.558594 66.304688 56.316406 66.167969 55.933594 65.96875 L 52.566406 64.203125 C 52.3125 64.0625 51.964844 63.851562 51.609375 63.613281 C 51.671875 63.707031 51.671875 63.707031 51.835938 63.960938 C 51.917969 64.09375 52.109375 64.40625 52.199219 64.570312 L 53.488281 66.914062 C 53.75 67.390625 53.957031 67.714844 54.132812 67.953125 L 53.089844 68.527344 C 52.996094 68.269531 52.820312 67.902344 52.554688 67.417969 L 50.527344 63.730469 C 50.324219 63.359375 50.167969 63.109375 49.964844 62.84375 L 51.078125 62.230469 C 51.238281 62.371094 51.484375 62.515625 51.929688 62.746094 L 55.234375 64.472656 C 55.546875 64.636719 55.976562 64.882812 56.292969 65.082031 C 56.113281 64.816406 55.855469 64.402344 55.6875 64.101562 L 54.367188 61.699219 C 54.136719 61.28125 53.960938 60.996094 53.769531 60.746094 L 54.8125 60.171875 C 54.925781 60.484375 55.054688 60.753906 55.296875 61.191406 L 57.375 64.96875 C 57.59375 65.367188 57.757812 65.632812 57.9375 65.859375 Z M 56.8125 66.480469 "/>
<path style=" stroke:none;fill-rule:nonzero;fill:rgb(22.352941%,0%,36.470588%);fill-opacity:1;" d="M 61.375 63.289062 C 61.199219 63.03125 61 62.769531 60.722656 62.460938 L 59.644531 61.257812 L 56.253906 60.285156 C 56.03125 60.222656 55.710938 60.144531 55.269531 60.039062 L 56.332031 59.089844 C 56.527344 59.210938 56.753906 59.300781 57.15625 59.425781 L 59.375 60.132812 L 58.9375 57.84375 C 58.855469 57.445312 58.785156 57.183594 58.6875 56.988281 L 59.742188 56.042969 C 59.765625 56.238281 59.835938 56.78125 59.882812 57.042969 L 60.472656 60.527344 L 61.542969 61.726562 C 61.816406 62.03125 62.050781 62.269531 62.292969 62.46875 Z M 61.375 63.289062 "/>
<path style=" stroke:none;fill-rule:nonzero;fill:rgb(22.352941%,0%,36.470588%);fill-opacity:1;" d="M 7.890625 33.097656 L 6.277344 31.484375 L 4.664062 33.097656 L 6.277344 34.710938 Z M 7.890625 33.097656 "/>
<path style=" stroke:none;fill-rule:nonzero;fill:rgb(22.352941%,0%,36.470588%);fill-opacity:1;" d="M 10.011719 35.21875 L 8.398438 33.601562 L 6.78125 35.21875 L 8.398438 36.832031 Z M 10.011719 35.21875 "/>
<path style=" stroke:none;fill-rule:nonzero;fill:rgb(22.352941%,0%,36.470588%);fill-opacity:1;" d="M 5.773438 35.21875 L 4.15625 33.601562 L 2.542969 35.21875 L 4.15625 36.832031 Z M 5.773438 35.21875 "/>
<path style=" stroke:none;fill-rule:nonzero;fill:rgb(22.352941%,0%,36.470588%);fill-opacity:1;" d="M 7.890625 37.335938 L 6.277344 35.722656 L 4.664062 37.335938 L 6.277344 38.949219 Z M 7.890625 37.335938 "/>
<path style=" stroke:none;fill-rule:nonzero;fill:rgb(22.352941%,0%,36.470588%);fill-opacity:1;" d="M 70.335938 33.097656 L 68.722656 31.484375 L 67.109375 33.097656 L 68.722656 34.710938 Z M 70.335938 33.097656 "/>
<path style=" stroke:none;fill-rule:nonzero;fill:rgb(22.352941%,0%,36.470588%);fill-opacity:1;" d="M 72.457031 35.214844 L 70.84375 33.601562 L 69.226562 35.214844 L 70.84375 36.832031 Z M 72.457031 35.214844 "/>
<path style=" stroke:none;fill-rule:nonzero;fill:rgb(22.352941%,0%,36.470588%);fill-opacity:1;" d="M 68.21875 35.214844 L 66.601562 33.601562 L 64.988281 35.214844 L 66.601562 36.832031 Z M 68.21875 35.214844 "/>
<path style=" stroke:none;fill-rule:nonzero;fill:rgb(22.352941%,0%,36.470588%);fill-opacity:1;" d="M 70.335938 37.335938 L 68.722656 35.722656 L 67.109375 37.335938 L 68.722656 38.949219 Z M 70.335938 37.335938 "/>
<path style=" stroke:none;fill-rule:nonzero;fill:rgb(97.254902%,21.568627%,33.72549%);fill-opacity:1;" d="M 37.5 63.75 C 51.996094 63.75 63.75 51.996094 63.75 37.5 C 63.75 23.003906 51.996094 11.25 37.5 11.25 C 23.003906 11.25 11.25 23.003906 11.25 37.5 C 11.25 51.996094 23.003906 63.75 37.5 63.75 Z M 37.5 63.75 "/>
<path style=" stroke:none;fill-rule:nonzero;fill:rgb(22.352941%,0%,36.470588%);fill-opacity:1;" d="M 37.5 64.402344 C 22.667969 64.402344 10.597656 52.332031 10.597656 37.5 C 10.597656 22.667969 22.667969 10.597656 37.5 10.597656 C 52.332031 10.597656 64.402344 22.667969 64.402344 37.5 C 64.402344 52.332031 52.332031 64.402344 37.5 64.402344 Z M 37.5 11.902344 C 23.386719 11.902344 11.902344 23.386719 11.902344 37.5 C 11.902344 51.613281 23.386719 63.097656 37.5 63.097656 C 51.613281 63.097656 63.097656 51.613281 63.097656 37.5 C 63.097656 23.386719 51.613281 11.902344 37.5 11.902344 Z M 37.5 11.902344 "/>
<path style=" stroke:none;fill-rule:nonzero;fill:rgb(100%,100%,100%);fill-opacity:1;" d="M 20.675781 38.449219 C 21.226562 38.925781 22.984375 40.402344 25.597656 40.71875 C 26.664062 40.847656 27.378906 40.726562 30.34375 40.113281 C 36.902344 38.753906 36.703125 38.667969 37.550781 38.667969 C 38.398438 38.667969 38.203125 38.753906 44.761719 40.113281 C 47.722656 40.726562 48.441406 40.847656 49.507812 40.71875 C 52.121094 40.402344 53.875 38.925781 54.429688 38.449219 C 56.65625 36.53125 57.878906 32.8125 57.59375 29.519531 C 56.960938 22.113281 48.71875 16.925781 43.351562 16.050781 C 42.316406 15.882812 40.125 15.671875 37.695312 15.664062 C 35.070312 15.65625 32.777344 15.886719 31.75 16.050781 C 26.339844 16.925781 18.140625 22.144531 17.507812 29.519531 C 17.226562 32.808594 18.449219 36.527344 20.675781 38.449219 Z M 20.675781 38.449219 "/>
<use xlink:href="#surface5" mask="url(#mask0)"/>
<path style=" stroke:none;fill-rule:nonzero;fill:rgb(22.352941%,0%,36.470588%);fill-opacity:1;" d="M 25.355469 49.570312 C 26.074219 50.195312 27.378906 50.902344 28.550781 51.277344 L 28.605469 51.410156 L 27.691406 53.128906 L 27.546875 53.171875 C 26.296875 52.6875 25.054688 52.023438 24.167969 51.121094 L 24.167969 50.992188 L 25.238281 49.570312 Z M 25.5 53.902344 C 26.699219 54.722656 28.265625 55.28125 30.328125 55.699219 L 30.378906 55.792969 L 29.503906 57.695312 L 29.375 57.75 C 27.445312 57.304688 25.488281 56.457031 24.246094 55.558594 L 24.234375 55.425781 L 25.371094 53.925781 Z M 26.726562 46.558594 C 28.003906 46.960938 29.191406 47.484375 30.339844 48.121094 L 30.339844 48.253906 L 29.203125 49.832031 L 29.074219 49.871094 C 27.925781 49.152344 26.6875 48.578125 25.433594 48.148438 L 25.421875 48.042969 L 26.59375 46.570312 Z M 26.726562 46.558594 "/>
<path style=" stroke:none;fill-rule:nonzero;fill:rgb(22.352941%,0%,36.470588%);fill-opacity:1;" d="M 32.074219 51.683594 L 32.074219 49.972656 L 32.191406 49.894531 L 33.976562 49.933594 L 38.988281 49.933594 L 40.8125 49.894531 L 40.90625 50 C 40.449219 54.136719 38.476562 56.328125 34.851562 57.578125 C 34.734375 57.617188 34.644531 57.644531 34.578125 57.644531 C 34.472656 57.644531 34.394531 57.605469 34.277344 57.5 L 32.804688 56.273438 C 35.804688 55.363281 37.761719 53.992188 38.335938 51.75 L 33.964844 51.75 L 32.164062 51.789062 Z M 37.929688 48.945312 L 34.917969 48.945312 L 33.328125 48.984375 L 33.234375 48.878906 L 33.234375 47.195312 L 33.351562 47.117188 L 34.929688 47.15625 L 37.878906 47.15625 L 39.679688 47.117188 L 39.78125 47.210938 L 39.78125 48.878906 L 39.691406 48.984375 Z M 37.929688 48.945312 "/>
<path style=" stroke:none;fill-rule:nonzero;fill:rgb(22.352941%,0%,36.470588%);fill-opacity:1;" d="M 45.105469 50.902344 C 46.382812 50.300781 47.921875 49.492188 49.292969 48.5 L 49.410156 48.5 L 50.6875 50.039062 L 50.671875 50.171875 C 49.03125 51.238281 47.125 52.125 45.089844 52.882812 L 45.089844 53.769531 C 45.089844 54.136719 45.105469 54.332031 45.207031 54.460938 C 45.363281 54.644531 45.640625 54.683594 46.1875 54.683594 C 47.660156 54.683594 48.875 54.59375 50.648438 54.394531 L 50.753906 54.460938 L 50.832031 56.367188 L 50.753906 56.457031 C 49.371094 56.574219 47.453125 56.679688 46.277344 56.679688 C 45.011719 56.679688 44.007812 56.5625 43.449219 55.855469 C 43.082031 55.414062 43.054688 54.773438 43.054688 53.886719 L 43.09375 47.847656 L 43.1875 47.757812 L 45.027344 47.757812 L 45.117188 47.847656 Z M 45.105469 50.902344 "/>
<path style=" stroke:none;fill-rule:nonzero;fill:rgb(22.352941%,0%,36.470588%);fill-opacity:1;" d="M 27.445312 33.265625 C 25.339844 33.265625 23.628906 31.554688 23.628906 29.449219 C 23.628906 27.347656 25.339844 25.632812 27.445312 25.632812 C 29.550781 25.632812 31.261719 27.347656 31.261719 29.449219 C 31.261719 31.554688 29.550781 33.265625 27.445312 33.265625 Z M 27.445312 26.449219 C 25.789062 26.449219 24.441406 27.792969 24.441406 29.449219 C 24.441406 31.105469 25.789062 32.449219 27.445312 32.449219 C 29.101562 32.449219 30.445312 31.105469 30.445312 29.449219 C 30.445312 27.792969 29.101562 26.449219 27.445312 26.449219 Z M 27.445312 26.449219 "/>
<path style=" stroke:none;fill-rule:nonzero;fill:rgb(22.352941%,0%,36.470588%);fill-opacity:1;" d="M 27.445312 31.636719 C 28.652344 31.636719 29.632812 30.65625 29.632812 29.449219 C 29.632812 28.242188 28.652344 27.261719 27.445312 27.261719 C 26.238281 27.261719 25.257812 28.242188 25.257812 29.449219 C 25.257812 30.65625 26.238281 31.636719 27.445312 31.636719 Z M 27.445312 31.636719 "/>
<path style=" stroke:none;fill-rule:nonzero;fill:rgb(22.352941%,0%,36.470588%);fill-opacity:1;" d="M 47.554688 33.265625 C 45.449219 33.265625 43.738281 31.554688 43.738281 29.449219 C 43.738281 27.347656 45.449219 25.632812 47.554688 25.632812 C 49.660156 25.632812 51.371094 27.347656 51.371094 29.449219 C 51.371094 31.554688 49.660156 33.265625 47.554688 33.265625 Z M 47.554688 26.449219 C 45.898438 26.449219 44.554688 27.792969 44.554688 29.449219 C 44.554688 31.105469 45.898438 32.449219 47.554688 32.449219 C 49.210938 32.449219 50.554688 31.105469 50.554688 29.449219 C 50.554688 27.792969 49.210938 26.449219 47.554688 26.449219 Z M 47.554688 26.449219 "/>
<path style=" stroke:none;fill-rule:nonzero;fill:rgb(22.352941%,0%,36.470588%);fill-opacity:1;" d="M 47.554688 31.636719 C 48.761719 31.636719 49.742188 30.65625 49.742188 29.449219 C 49.742188 28.242188 48.761719 27.261719 47.554688 27.261719 C 46.347656 27.261719 45.367188 28.242188 45.367188 29.449219 C 45.367188 30.65625 46.347656 31.636719 47.554688 31.636719 Z M 47.554688 31.636719 "/>
<use xlink:href="#surface8" mask="url(#mask1)"/>
<use xlink:href="#surface11" mask="url(#mask2)"/>
<path style=" stroke:none;fill-rule:nonzero;fill:rgb(22.352941%,0%,36.470588%);fill-opacity:1;" d="M 49.1875 36.304688 C 49.140625 36.117188 48.929688 36 48.71875 36.039062 C 48.503906 36.082031 48.371094 36.265625 48.417969 36.457031 C 48.417969 36.457031 48.472656 36.679688 48.332031 36.796875 C 48.203125 36.90625 47.960938 36.878906 47.867188 36.871094 C 47.445312 36.824219 47.148438 36.527344 46.96875 36.351562 L 46.925781 36.3125 C 45.675781 35.097656 43.582031 34.429688 42.742188 34.347656 C 42.25 34.300781 41.582031 34.222656 40.242188 34.347656 C 38.484375 34.511719 38.363281 34.957031 37.5 34.957031 C 36.636719 34.957031 36.515625 34.511719 34.757812 34.347656 C 33.421875 34.222656 32.75 34.300781 32.257812 34.347656 C 31.417969 34.429688 29.324219 35.097656 28.074219 36.3125 L 28.03125 36.351562 C 27.851562 36.527344 27.554688 36.824219 27.132812 36.871094 C 27.039062 36.878906 26.796875 36.90625 26.667969 36.796875 C 26.527344 36.679688 26.582031 36.457031 26.582031 36.457031 C 26.628906 36.265625 26.496094 36.082031 26.28125 36.039062 C 26.070312 36 25.859375 36.117188 25.8125 36.304688 C 25.789062 36.40625 25.683594 36.929688 26.121094 37.300781 C 26.386719 37.527344 26.761719 37.617188 27.234375 37.5625 C 27.945312 37.480469 28.402344 37.035156 28.617188 36.820312 L 28.65625 36.78125 C 29.726562 35.746094 31.589844 35.460938 32.34375 35.390625 C 33.210938 35.308594 34.015625 35.460938 34.574219 35.550781 C 36.367188 35.835938 36.433594 36.226562 37.5 36.226562 C 38.566406 36.226562 38.636719 35.835938 40.429688 35.550781 C 40.988281 35.460938 41.789062 35.308594 42.660156 35.390625 C 43.410156 35.464844 45.277344 35.746094 46.347656 36.78125 L 46.382812 36.820312 C 46.601562 37.035156 47.058594 37.480469 47.769531 37.5625 C 48.238281 37.617188 48.613281 37.527344 48.878906 37.300781 C 49.316406 36.929688 49.210938 36.40625 49.1875 36.304688 Z M 49.1875 36.304688 "/>
<use xlink:href="#surface14" mask="url(#mask3)"/>
<path style=" stroke:none;fill-rule:nonzero;fill:rgb(22.352941%,0%,36.470588%);fill-opacity:1;" d="M 23.386719 20.882812 C 23.402344 20.300781 27.621094 19.113281 31.210938 20.871094 C 31.941406 21.226562 33.628906 22.082031 34.144531 23.804688 C 34.261719 24.1875 34.570312 25.210938 33.984375 26.085938 C 33.382812 26.988281 32.289062 27.0625 32.210938 27.066406 C 31.089844 27.121094 30.355469 26.296875 30.15625 26.074219 C 29.4375 25.265625 29.546875 24.53125 29.253906 23.804688 C 28.234375 21.265625 23.371094 21.511719 23.386719 20.882812 Z M 23.386719 20.882812 "/>
<path style=" stroke:none;fill-rule:nonzero;fill:rgb(22.352941%,0%,36.470588%);fill-opacity:1;" d="M 51.613281 20.882812 C 51.597656 20.300781 47.378906 19.113281 43.789062 20.871094 C 43.058594 21.226562 41.371094 22.082031 40.855469 23.804688 C 40.738281 24.1875 40.429688 25.210938 41.015625 26.085938 C 41.617188 26.988281 42.710938 27.0625 42.789062 27.066406 C 43.910156 27.121094 44.644531 26.296875 44.84375 26.074219 C 45.5625 25.265625 45.453125 24.53125 45.746094 23.804688 C 46.765625 21.265625 51.628906 21.511719 51.613281 20.882812 Z M 51.613281 20.882812 "/>
<path style=" stroke:none;fill-rule:nonzero;fill:rgb(22.352941%,0%,36.470588%);fill-opacity:1;" d="M 40.203125 22.988281 C 39.976562 22.726562 39.535156 22.707031 39.226562 22.824219 C 38.859375 22.964844 38.691406 23.296875 38.601562 23.472656 C 38.203125 24.285156 38.410156 25.359375 38.953125 26.097656 C 39.402344 26.707031 40.070312 27.070312 40.175781 26.96875 C 40.28125 26.871094 39.675781 26.457031 39.652344 25.746094 C 39.628906 24.992188 40.285156 24.722656 40.351562 23.648438 C 40.371094 23.308594 40.320312 23.121094 40.203125 22.988281 Z M 40.203125 22.988281 "/>
<path style=" stroke:none;fill-rule:nonzero;fill:rgb(22.352941%,0%,36.470588%);fill-opacity:1;" d="M 34.796875 22.988281 C 35.023438 22.726562 35.464844 22.707031 35.773438 22.824219 C 36.140625 22.964844 36.308594 23.296875 36.398438 23.472656 C 36.796875 24.285156 36.589844 25.359375 36.046875 26.097656 C 35.597656 26.707031 34.929688 27.070312 34.824219 26.96875 C 34.71875 26.871094 35.324219 26.457031 35.347656 25.746094 C 35.371094 24.992188 34.714844 24.722656 34.648438 23.648438 C 34.628906 23.308594 34.679688 23.121094 34.796875 22.988281 Z M 34.796875 22.988281 "/>
<path style=" stroke:none;fill-rule:nonzero;fill:rgb(22.352941%,0%,36.470588%);fill-opacity:1;" d="M 41.152344 28.921875 C 40.964844 28.921875 40.785156 28.945312 40.617188 28.988281 C 40.171875 29.101562 39.867188 29.335938 39.707031 29.476562 C 39.8125 29.546875 40.132812 29.777344 40.246094 30.207031 C 40.253906 30.238281 40.414062 30.855469 40.085938 31.183594 C 39.9375 31.328125 39.859375 31.257812 39.675781 31.414062 C 39.402344 31.652344 39.546875 31.875 39.261719 32.140625 C 39.011719 32.378906 38.671875 32.527344 38.296875 32.527344 L 36.699219 32.527344 C 36.328125 32.527344 35.988281 32.378906 35.734375 32.140625 C 35.453125 31.875 35.59375 31.652344 35.324219 31.414062 C 35.140625 31.257812 35.0625 31.328125 34.914062 31.183594 C 34.582031 30.855469 34.742188 30.238281 34.75 30.207031 C 34.867188 29.777344 35.1875 29.546875 35.289062 29.476562 C 35.132812 29.335938 34.828125 29.101562 34.382812 28.988281 C 34.210938 28.945312 34.03125 28.921875 33.847656 28.921875 C 32.652344 28.921875 31.683594 29.890625 31.683594 31.085938 C 31.683594 32.277344 32.652344 33.246094 33.847656 33.246094 C 34.097656 33.246094 34.335938 33.203125 34.5625 33.125 C 35.070312 33.375 35.71875 33.757812 36.375 34.332031 C 36.851562 34.746094 37.21875 35.167969 37.5 35.53125 C 37.78125 35.167969 38.148438 34.746094 38.625 34.332031 C 39.28125 33.757812 39.925781 33.375 40.4375 33.125 C 40.660156 33.203125 40.902344 33.246094 41.152344 33.246094 C 42.347656 33.246094 43.316406 32.277344 43.316406 31.085938 C 43.316406 29.890625 42.34375 28.921875 41.152344 28.921875 Z M 41.152344 28.921875 "/>
<path style=" stroke:none;fill-rule:nonzero;fill:rgb(22.352941%,0%,36.470588%);fill-opacity:1;" d="M 37.636719 37.359375 C 35.871094 37.316406 34.234375 39.359375 33.789062 41.203125 C 33.667969 41.703125 33.328125 43.113281 34.136719 44.351562 C 35.238281 46.027344 37.5 45.9375 37.808594 45.925781 C 38.089844 45.914062 40.214844 45.800781 41.132812 44.351562 C 42.609375 42.023438 40.238281 37.421875 37.636719 37.359375 Z M 37.636719 37.359375 "/>
<path style=" stroke:none;fill-rule:nonzero;fill:rgb(22.352941%,0%,36.470588%);fill-opacity:1;" d="M 28.964844 34.234375 C 28.925781 33.996094 24.804688 33.390625 22.496094 35.632812 C 21.40625 36.691406 21.105469 38.007812 19.589844 38.476562 C 19.082031 38.636719 18.40625 38.707031 17.792969 39.292969 C 17.589844 39.488281 17.105469 39.953125 17.140625 40.597656 C 17.191406 41.433594 18.074219 41.878906 18.121094 41.902344 C 19.011719 42.335938 20 41.855469 20.238281 41.738281 C 22.300781 40.742188 21.699219 38.3125 23.546875 36.332031 C 25.640625 34.085938 29.003906 34.449219 28.964844 34.234375 Z M 28.964844 34.234375 "/>
<path style=" stroke:none;fill-rule:nonzero;fill:rgb(22.352941%,0%,36.470588%);fill-opacity:1;" d="M 46.164062 34.234375 C 46.203125 33.996094 50.324219 33.390625 52.632812 35.632812 C 53.722656 36.691406 54.023438 38.007812 55.539062 38.476562 C 56.046875 38.636719 56.722656 38.707031 57.335938 39.292969 C 57.539062 39.488281 58.023438 39.953125 57.988281 40.597656 C 57.9375 41.433594 57.054688 41.878906 57.007812 41.902344 C 56.117188 42.335938 55.128906 41.855469 54.886719 41.738281 C 52.828125 40.742188 53.429688 38.3125 51.582031 36.332031 C 49.488281 34.085938 46.125 34.449219 46.164062 34.234375 Z M 46.164062 34.234375 "/>
<path style=" stroke:none;fill-rule:nonzero;fill:rgb(22.352941%,0%,36.470588%);fill-opacity:1;" d="M 51.667969 32.039062 C 51.40625 32.570312 53.078125 34.59375 55.160156 34.605469 C 56.742188 34.609375 57.726562 33.390625 57.78125 33.324219 C 57.929688 33.132812 58.964844 31.824219 58.378906 30.820312 C 57.929688 30.050781 56.757812 29.851562 55.96875 30.132812 C 55.128906 30.429688 55.203125 31.097656 54.285156 31.613281 C 53.023438 32.320312 51.867188 31.632812 51.667969 32.039062 Z M 51.667969 32.039062 "/>
<path style=" stroke:none;fill-rule:nonzero;fill:rgb(22.352941%,0%,36.470588%);fill-opacity:1;" d="M 23.175781 32.710938 C 23.4375 33.238281 21.765625 35.265625 19.683594 35.273438 C 19.492188 35.277344 17.898438 35.25 17.0625 33.992188 C 16.519531 33.171875 16.285156 31.804688 16.984375 31.144531 C 17.523438 30.640625 18.375 30.785156 18.472656 30.800781 C 19.441406 30.980469 19.550781 31.757812 20.554688 32.285156 C 21.882812 32.976562 22.972656 32.296875 23.175781 32.710938 Z M 23.175781 32.710938 "/>
</g>
</svg>
