<svg width="32" height="32" viewBox="0 0 32 32" fill="none" xmlns="http://www.w3.org/2000/svg">
<path fill-rule="evenodd" clip-rule="evenodd" d="M23.2903 21.9998L16.0001 9.03955L8.70995 21.9998L23.2903 21.9998ZM16.8717 8.54929C16.4894 7.86964 15.5108 7.86964 15.1285 8.54929L7.83838 21.5096C7.46341 22.1762 7.94512 22.9998 8.70995 22.9998H23.2903C24.0551 22.9998 24.5368 22.1762 24.1618 21.5096L16.8717 8.54929ZM16 12.9731C16.4142 12.9731 16.75 13.3089 16.75 13.7231V16.2525C16.75 16.6667 16.4142 17.0025 16 17.0025C15.5858 17.0025 15.25 16.6667 15.25 16.2525V13.7231C15.25 13.3089 15.5858 12.9731 16 12.9731ZM17 19.5C17 18.9477 16.5523 18.5 16 18.5C15.4477 18.5 15 18.9477 15 19.5V19.5686C15 20.1208 15.4477 20.5686 16 20.5686C16.5523 20.5686 17 20.1208 17 19.5686V19.5Z" fill="currentColor" />
</svg>
