<svg width="32" height="33" viewBox="0 0 32 33" fill="none" xmlns="http://www.w3.org/2000/svg">
      <path
        fillRule="evenodd"
        clipRule="evenodd"
        d="M21.25 18.1211C21.25 18.8411 21.6849 19.4596 22.3063 19.7282C22.519 19.8201 22.7536 19.8711 23 19.8711V20.7282H9V19.8711C9.24643 19.8711 9.48097 19.8201 9.69365 19.7282C10.3151 19.4596 10.75 18.8411 10.75 18.1211V14.7282C10.75 11.4145 13.1005 8.72824 16 8.72824C18.8995 8.72824 21.25 11.4145 21.25 14.7282V18.1211ZM20.25 14.7282V18.1211C20.25 18.721 20.4421 19.2761 20.7682 19.7282H11.2318C11.5579 19.2761 11.75 18.721 11.75 18.1211V14.7282C11.75 11.8372 13.774 9.72824 16 9.72824C18.226 9.72824 20.25 11.8372 20.25 14.7282Z"
        fill="currentColor"
      />
      <path
        d="M16 23.7282C14.8954 23.7282 14 22.8328 14 21.7282H13C13 23.3851 14.3431 24.7282 16 24.7282C17.6569 24.7282 19 23.3851 19 21.7282H18C18 22.8328 17.1046 23.7282 16 23.7282Z"
        fill="currentColor"
      />
</svg>