<svg width="16" height="16" viewBox="0 0 16 16" fill="none" xmlns="http://www.w3.org/2000/svg">
  <path
    fillRule="evenodd"
    clipRule="evenodd"
    d="M8.63377 2.86412C8.36977 2.58932 8.09246 2.3024 7.80194 2.00192C7.80134 2.00132 7.80073 2.0006 7.80013 2L7.79954 2.0006C7.79918 2.00096 7.79869 2.00144 7.79833 2.0018C7.50781 2.3024 7.23049 2.58932 6.96637 2.864C4.32217 5.61488 3.00001 7.15268 3.00001 9.02228C2.99701 10.2972 3.46573 11.573 4.40605 12.5456C6.28045 14.4848 9.31969 14.4848 11.1941 12.5456C12.1344 11.573 12.603 10.2972 12.6 9.02228C12.6 7.15268 11.278 5.61488 8.63377 2.86412ZM7.80013 3.72848C6.62821 4.9484 5.76805 5.87708 5.16577 6.69344C4.44601 7.6694 4.20001 8.34944 4.20001 9.02228V9.02504C4.19773 10.0064 4.55809 10.9765 5.26886 11.7116C6.67154 13.1628 8.92862 13.1628 10.3314 11.7116C11.0419 10.9765 11.4023 10.0065 11.4 9.02516V9.02228C11.4 8.34944 11.154 7.6694 10.4343 6.69344C9.8321 5.87708 8.97181 4.9484 7.80013 3.72848Z"
    fill="currentColor"
  />
</svg>
