<svg width="16" height="16" viewBox="0 0 16 16" fill="none" xmlns="http://www.w3.org/2000/svg">
  <path
    fillRule="evenodd"
    clipRule="evenodd"
    d="M7.80218 2.00132C8.09271 2.30182 8.37004 2.58875 8.63406 2.86356C11.2784 5.61446 12.6005 7.15234 12.6005 9.02203C12.6035 10.297 12.1349 11.5729 11.1945 12.5455C9.32001 14.4848 6.28062 14.4848 4.40612 12.5455C3.46576 11.5729 2.99701 10.297 3.00001 9.02203C3.00001 7.15234 4.32224 5.61446 6.96657 2.86356C7.23071 2.58875 7.50804 2.30182 7.79857 2.0012L7.79978 2L7.80218 2.00132ZM5.16588 6.69307C5.76819 5.87667 6.6284 4.94795 7.80037 3.72797C8.97211 4.94795 9.83244 5.87667 10.4346 6.69307C11.1544 7.66908 11.4004 8.34916 11.4004 9.02203V9.02491C11.4006 9.08323 11.3995 9.14156 11.397 9.19976H4.20355C4.20115 9.14156 4.19995 9.08323 4.20007 9.02479V9.02203C4.20007 8.34916 4.44609 7.66908 5.16588 6.69307Z"
    fill="currentColor"
  />
</svg>