<svg width="16" height="16" viewBox="0 0 16 16" fill="none" xmlns="http://www.w3.org/2000/svg">
<path fill-rule="evenodd" clip-rule="evenodd" d="M2.20459 5.75255L2.70593 5.37361L8.20593 1.21648L8.49235 1L8.77876 1.21648L14.2788 5.37361L14.7801 5.75255L14.2788 6.13148L13.2806 6.88592L14.2792 7.64072L14.7806 8.01966L14.2792 8.39859L13.2806 9.1534L14.2792 9.9082L14.7806 10.2871L14.2792 10.6661L8.77925 14.8232L8.49283 15.0397L8.20642 14.8232L2.70642 10.6661L2.20508 10.2871L2.70642 9.9082L3.70505 9.1534L2.70642 8.39859L2.20508 8.01966L2.70642 7.64072L3.70456 6.88629L2.70593 6.13148L2.20459 5.75255ZM4.4928 9.74882L3.78059 10.2871L8.49283 13.8488L13.2051 10.2871L12.4929 9.74882L8.77925 12.5557L8.49283 12.7722L8.20642 12.5557L4.4928 9.74882ZM8.77876 10.2886L12.4929 7.48134L13.2051 8.01966L8.49283 11.5814L3.78059 8.01966L4.49232 7.48171L8.20593 10.2886L8.49235 10.5051L8.77876 10.2886ZM8.49235 9.31426L13.2046 5.75255L8.49235 2.19084L3.7801 5.75255L8.49235 9.31426Z" fill="currentColor" />
</svg>