<svg width="16" height="16" viewBox="0 0 16 16" fill="none" xmlns="http://www.w3.org/2000/svg">
<path d="M8 14C11.314 14 14 11.314 14 8C14 4.686 11.314 2 8 2C4.686 2 2 4.686 2 8C2 11.314 4.686 14 8 14ZM8 13C5.054 13 3 10.946 3 8C3 5.054 5.054 3 8 3C10.946 3 13 5.054 13 8C13 10.946 10.946 13 8 13ZM7.5 7.333H8.5V9.5V11.333H7.5V9.5V7.333ZM7.334 5.333C7.334 4.965 7.632 4.667 8.001 4.667C8.369 4.667 8.667 4.965 8.667 5.333C8.667 5.702 8.369 6 8.001 6C7.632 6 7.334 5.702 7.334 5.333Z" fill="currentColor"/>
</svg>
