<svg width="24" height="24" viewBox="0 0 24 24" fill="none" xmlns="http://www.w3.org/2000/svg">
<path fill-rule="evenodd" clip-rule="evenodd" d="M7.23996 8.48026L8.90685 9.431L10.0614 10.0895C10.542 9.60176 11.2102 9.29936 11.949 9.29936C12.7066 9.29936 13.3899 9.6173 13.8729 10.127L16.76 8.48026L12 5.73205L7.23996 8.48026ZM17.4282 9.82599L14.5546 11.465C14.5836 11.6219 14.5987 11.7837 14.5987 11.949C14.5987 13.1333 13.8219 14.136 12.75 14.4755V17.8349L17.4282 15.134V9.82599ZM12.75 19.567L18.9282 16V8L12 4L5.0718 8V16L11.25 19.567V19.6667H11.4226L12 20L12.5774 19.6667H12.75V19.567ZM11.25 17.8349V14.5055C10.1258 14.1989 9.29936 13.1705 9.29936 11.949C9.29936 11.7653 9.31807 11.5859 9.35368 11.4127L8.16368 10.734L6.5718 9.82599V15.134L11.25 17.8349ZM11.949 13.0987C12.584 13.0987 13.0987 12.584 13.0987 11.949C13.0987 11.3141 12.584 10.7994 11.949 10.7994C11.3141 10.7994 10.7994 11.3141 10.7994 11.949C10.7994 12.584 11.3141 13.0987 11.949 13.0987Z" fill="currentColor"/>
</svg>
