<svg width="16" height="16" viewBox="0 0 16 16" fill="none" xmlns="http://www.w3.org/2000/svg">
  <path
    fillRule="evenodd"
    clipRule="evenodd"
    d="M3 9.05004L3 1H4L4 9.05004C5.14112 9.28167 6 10.2906 6 11.5C6 12.7095 5.14112 13.7184 4 13.95L4 15H3L3 13.95C1.85888 13.7184 1 12.7095 1 11.5C1 10.2906 1.85888 9.28167 3 9.05004ZM3.50967 13H3.49033C2.66635 12.9948 2 12.3252 2 11.5C2 10.6716 2.67157 10 3.5 10C4.32843 10 5 10.6716 5 11.5C5 12.3252 4.33365 12.9948 3.50967 13ZM11 1H10V3.05001C8.85888 3.28164 8 4.29052 8 5.5C8 6.70948 8.85888 7.71836 10 7.94999V15H11V7.94999C12.1411 7.71836 13 6.70948 13 5.5C13 4.29052 12.1411 3.28164 11 3.05001V1ZM12 5.5C12 6.32843 11.3284 7 10.5 7C9.67157 7 9 6.32843 9 5.5C9 4.67157 9.67157 4 10.5 4C11.3284 4 12 4.67157 12 5.5Z"
    fill="currentColor"
  />
</svg>