<svg width="102" height="102" viewBox="0 0 102 102" fill="none" xmlns="http://www.w3.org/2000/svg">
  <path fill-rule="evenodd" clip-rule="evenodd" d="M23.7938 47.3992C10.9653 47.2884 0.600098 36.8547 0.600098 24.0001C0.600098 11.0766 11.0766 0.600098 24.0001 0.600098C36.8434 0.600098 47.27 10.947 47.3989 23.7598C47.3997 23.8167 47.4001 23.8737 47.4001 23.9308V35.7692C47.4001 42.1927 42.1928 47.4 35.7694 47.4H24.069C24.046 47.4001 24.0231 47.4001 24.0001 47.4001C23.9771 47.4001 23.9542 47.4001 23.9312 47.4H23.9309C23.8851 47.4 23.8395 47.3997 23.7938 47.3992Z" fill="currentColor"/>
  <path fill-rule="evenodd" clip-rule="evenodd" d="M80.2593 50.9953C91.9766 50.7508 101.4 41.1759 101.4 29.4C101.4 17.4707 91.7293 7.80005 79.7999 7.80005C68.027 7.80005 58.454 17.2187 58.2049 28.9318C58.2015 29.0413 58.1999 29.1512 58.1999 29.2615V40.3385C58.1999 46.2267 62.9732 51 68.8614 51H79.7531C79.7687 51 79.7843 51 79.7999 51C79.8155 51 79.8311 51 79.8467 51H79.9383C80.0457 51 80.1527 50.9984 80.2593 50.9953Z" fill="currentColor"/>
  <path fill-rule="evenodd" clip-rule="evenodd" d="M51.3637 81.2114C51.3612 81.3406 51.36 81.4701 51.36 81.5999C51.36 92.5351 60.2247 101.4 71.16 101.4C82.0952 101.4 90.96 92.5351 90.96 81.5999C90.96 70.6647 82.0952 61.7999 71.16 61.7999C71.0293 61.7999 70.8989 61.8012 70.7688 61.8037C70.675 61.8012 70.5809 61.8 70.4865 61.8H61.9334C56.0938 61.8 51.3599 66.5339 51.3599 72.3734V80.9266C51.3599 81.0218 51.3612 81.1168 51.3637 81.2114Z" fill="currentColor"/>
  <path fill-rule="evenodd" clip-rule="evenodd" d="M40.5411 75.3665C40.5537 75.6427 40.5601 75.9206 40.5601 76.2C40.5601 86.1411 32.5012 94.2 22.5601 94.2C12.6189 94.2 4.56006 86.1411 4.56006 76.2C4.56006 66.2588 12.6189 58.2 22.5601 58.2C22.8394 58.2 23.1172 58.2063 23.3934 58.2189C23.6032 58.2064 23.8147 58.2 24.0277 58.2H30.0923C35.8735 58.2 40.56 62.8865 40.56 68.6677V74.7323C40.56 74.9452 40.5536 75.1567 40.5411 75.3665Z" fill="currentColor"/>
</svg>
