<svg width="228" height="77" viewBox="0 0 228 77" fill="none" xmlns="http://www.w3.org/2000/svg">
<path fill-rule="evenodd" clip-rule="evenodd" d="M114.288 0.874394L105.068 2.81549L105.151 6.58609L90.6521 13.2393V1.48052H80.6095V32.5712H90.6521V23.5957L97.6191 20.3319L105.528 32.5712H116.951L106.218 16.3148L111.114 14.0553C113.875 12.7372 115.068 10.7914 115.068 7.77866V0.874394H114.288ZM41.777 0H11.8442V7.38866H22.3072V32.5712H32.3498V7.38866H41.777V0ZM58.9945 33.1989C49.0147 33.1989 41.1061 27.801 41.1061 16.6914C41.1061 5.64461 49.0147 0.246727 58.9945 0.246727C68.9115 0.246727 76.82 5.64461 76.82 16.6914C76.82 27.801 68.9115 33.1989 58.9945 33.1989ZM58.9945 9.03397C54.2242 9.03397 51.1487 11.4191 51.1487 16.6914C51.1487 22.0265 54.2242 24.4116 58.9945 24.4116C63.7019 24.4116 66.7775 22.0265 66.7775 16.6914C66.7775 11.4191 63.7019 9.03397 58.9945 9.03397ZM135.365 33.1989C123.188 33.1989 117.602 25.2904 117.602 16.3148C117.602 6.27226 124.444 0.246727 134.298 0.246727C144.152 0.246727 151.057 6.08397 151.057 15.6872V18.8255H127.017C127.017 22.4659 129.653 25.0393 135.365 25.0393C138.88 25.0393 141.516 23.784 142.144 21.3989H152.186C151.559 25.9808 146.349 33.1989 135.365 33.1989ZM134.298 8.40631C128.712 8.40631 127.017 10.7914 127.017 13.1765H141.642C141.642 10.7914 139.884 8.40631 134.298 8.40631ZM182.162 17.0052C182.162 11.2308 180.468 9.03397 175.635 9.03397C170.174 9.03397 166.596 11.9212 166.596 20.834V32.5712H156.554V0.874394H166.596V4.70312L164.714 10.3521H167.224C168.479 4.70312 172.434 0.246727 179.212 0.246727C187.309 0.246727 192.205 5.64461 192.205 15.4361V32.5712H182.162V17.0052ZM215.667 13.9104C221.535 15.8163 226.755 17.5116 226.755 23.8468C226.755 29.1819 222.927 33.1989 212.005 33.1989C200.331 33.1989 195.309 28.4914 195.309 21.085H205.352C205.352 23.5329 207.047 25.667 212.319 25.667C215.018 25.667 216.713 25.0393 216.713 23.5329C216.713 22.0318 215.226 21.5397 211.03 20.1515C210.665 20.0305 210.279 19.9028 209.871 19.767C209.326 19.5873 208.77 19.4109 208.21 19.233C202.7 17.4844 196.753 15.5972 196.753 9.15951C196.753 3.51057 201.837 0.246727 210.562 0.246727C221.295 0.246727 225.688 5.58184 225.688 11.7329H215.646C215.646 9.47333 213.951 7.77866 210.499 7.77866C208.114 7.77866 206.796 8.34355 206.796 9.59887C206.796 11.0329 209.64 11.9549 214.244 13.448L214.955 13.6787C215.192 13.7559 215.427 13.8324 215.662 13.9087L215.667 13.9104ZM40.7784 38.4935V42.6761H33.2464V51.4634H40.7784V69.6655C40.7784 73.1177 42.6613 75.1262 46.1135 75.0006L62.4954 74.373V65.5857L50.8209 66.2134V51.4634H61.2401V42.6761H50.8209V38.4935H40.7784ZM143.199 38.4935V74.373H133.157V72.4272L135.04 66.7783H132.529C130.897 70.9836 127.884 75.0006 120.039 75.0006C110.875 75.0006 106.293 67.4687 106.293 58.4932C106.293 49.5176 110.875 42.0485 120.039 42.0485C127.884 42.0485 130.897 46.0655 132.529 50.2708H135.04L133.157 44.6219V38.4935H143.199ZM20.9024 55.7122C26.7704 57.618 31.9901 59.3134 31.9901 65.6485C31.9901 70.9836 28.1614 75.0006 17.2401 75.0006C5.56565 75.0006 0.544373 70.2932 0.544373 62.8868H10.5869C10.5869 65.3347 12.2816 67.4687 17.554 67.4687C20.2529 67.4687 21.9476 66.8411 21.9476 65.3347C21.9476 63.8335 20.4605 63.3415 16.2651 61.9532C15.8996 61.8323 15.5135 61.7045 15.1061 61.5687C14.5613 61.3891 14.0053 61.2126 13.4448 61.0347C7.93468 59.2861 1.98799 57.3989 1.98799 50.9613C1.98799 45.3123 7.07204 42.0485 15.7965 42.0485C26.5295 42.0485 30.9231 47.3836 30.9231 53.5347H20.8806C20.8806 51.2751 19.1859 49.5804 15.7337 49.5804C13.3486 49.5804 12.0306 50.1453 12.0306 51.4006C12.0306 52.8346 14.8744 53.7567 19.4793 55.2498L20.1901 55.4804C20.4282 55.5581 20.6662 55.6354 20.9024 55.7122ZM76.9375 58.2421C76.9375 64.0166 78.6322 66.2134 83.4651 66.2134C88.9258 66.2134 92.5034 63.3262 92.5034 54.4134V42.6761H102.546V74.373H92.5034V70.5443L94.3864 64.8953H91.8758C90.6205 70.5443 86.6662 75.0006 79.8875 75.0006C71.7907 75.0006 66.8949 69.6028 66.8949 59.8113V42.6761H76.9375V58.2421ZM124.746 66.2134C130.144 66.2134 133.157 63.8283 133.157 58.4932C133.157 53.1581 130.144 50.8357 124.746 50.8357C119.348 50.8357 116.335 53.1581 116.335 58.4932C116.335 63.8283 119.348 66.2134 124.746 66.2134ZM167.299 59.3798C167.299 70.4893 175.207 75.8872 185.187 75.8872C195.104 75.8872 203.013 70.4893 203.013 59.3798C203.013 48.3329 195.104 42.9351 185.187 42.9351C175.207 42.9351 167.299 48.3329 167.299 59.3798ZM177.341 59.3798C177.341 54.1074 180.417 51.7223 185.187 51.7223C189.894 51.7223 192.97 54.1074 192.97 59.3798C192.97 64.7149 189.894 67.1 185.187 67.1C180.417 67.1 177.341 64.7149 177.341 59.3798ZM151.013 50.9483L161.377 50.208V74.026H151.013V50.9483Z" fill="currentColor"/>
<path d="M151.013 46.43L161.377 45.6897V38.4168H151.013V46.43Z" fill="currentColor"/>
</svg>
