<svg width="16" height="16" viewBox="0 0 16 16" fill="none" xmlns="http://www.w3.org/2000/svg">
<path fill-rule="evenodd" clip-rule="evenodd" d="M12.915 2.18303C12.5817 1.99058 12.165 2.23114 12.165 2.61604V3.63721C10.0275 4.05191 8.1478 5.38409 7.05713 7.32306L6.2846 8.69645C5.52305 10.0503 4.23693 11.0008 2.7625 11.3512C2.72133 11.2494 2.64711 11.1623 2.549 11.1057L1.74997 10.6444C1.59527 10.555 1.40467 10.555 1.24997 10.6444L0.450928 11.1057C0.296227 11.195 0.200928 11.3601 0.200928 11.5387V12.4613C0.200928 12.64 0.296227 12.805 0.450928 12.8944L1.24997 13.3557C1.40467 13.445 1.59527 13.445 1.74997 13.3557L2.549 12.8944C2.7037 12.805 2.799 12.64 2.799 12.4613V12.3672C4.62265 11.9926 6.2228 10.846 7.15617 9.18671L7.92871 7.81332C8.84141 6.19074 10.3917 5.05845 12.165 4.65885V5.21412C12.165 5.59902 12.5817 5.83958 12.915 5.64713L15.165 4.34809C15.4984 4.15564 15.4984 3.67452 15.165 3.48207L12.915 2.18303ZM8.2271 9.32252C8.13857 9.47989 8.14418 9.67445 8.25029 9.82055C8.27117 9.84931 8.29227 9.87786 8.31359 9.90622C8.47951 10.127 8.79296 10.1714 9.0137 10.0055C9.23444 9.83958 9.27888 9.52613 9.11296 9.30539C8.96834 9.11298 8.83538 8.90975 8.7154 8.69645C8.68554 8.64337 8.60912 8.64337 8.57926 8.69645L8.2271 9.32252ZM2.26361 4.55671C1.98162 4.51922 1.69526 4.50002 1.40605 4.50002H1.30453H1.1015H1.06928C1.03101 4.50002 0.999981 4.46899 0.999981 4.43072C0.999981 4.4092 0.989783 4.38913 0.973657 4.37489C0.869939 4.28327 0.804531 4.14928 0.804531 4.00002C0.804531 3.85075 0.869939 3.71676 0.973656 3.62515C0.989783 3.6109 0.999981 3.59083 0.999981 3.56931C0.999981 3.53104 1.03101 3.50002 1.06928 3.50002H1.1015H1.30453H1.40605C1.73955 3.50002 2.06994 3.52216 2.39539 3.56543C2.66912 3.60181 2.86153 3.85322 2.82514 4.12695C2.78875 4.40069 2.53735 4.59309 2.26361 4.55671ZM3.91868 5.00522C3.66401 4.89844 3.54413 4.60544 3.65091 4.35077C3.75769 4.09611 4.05069 3.97623 4.30536 4.08301C4.91618 4.33912 5.49064 4.6751 6.01333 5.08191C6.23124 5.25152 6.2704 5.56567 6.1008 5.78358C5.93119 6.0015 5.61704 6.04066 5.39912 5.87105C4.94608 5.51844 4.44811 5.22721 3.91868 5.00522ZM9.5161 11.129C9.29818 10.9594 9.25902 10.6453 9.42863 10.4274C9.59824 10.2095 9.91239 10.1703 10.1303 10.3399C10.5137 10.6383 10.935 10.8847 11.383 11.0725C11.6377 11.1793 11.7576 11.4723 11.6508 11.727C11.544 11.9816 11.251 12.1015 10.9963 11.9948C10.467 11.7728 9.96909 11.4816 9.5161 11.129ZM12.165 10.616C12.165 10.2311 12.5817 9.99058 12.915 10.183L15.165 11.4821C15.4984 11.6745 15.4984 12.1556 15.165 12.3481L12.915 13.6471C12.5817 13.8396 12.165 13.599 12.165 13.2141V10.616Z" fill="currentcolor"/>
</svg>