<svg width="16" height="16" viewBox="0 0 16 16" fill="none" xmlns="http://www.w3.org/2000/svg">
    <path fill-rule="evenodd" clip-rule="evenodd" d="M3.68284 3.11716C3.60783 3.04215 3.50608 3 3.4 3C3.29391 3 3.19217 3.04215 3.11715 3.11716L1.11716 5.11716C0.960948 5.27337 0.960948 5.52664 1.11716 5.68285C1.27337 5.83906 1.52663 5.83906 1.68284 5.68285L3 4.36569V12.4343L1.68284 11.1172C1.52663 10.961 1.27337 10.961 1.11716 11.1172C0.960947 11.2734 0.960947 11.5266 1.11716 11.6829L3.11715 13.6829C3.19217 13.7579 3.29391 13.8 3.4 13.8C3.50608 13.8 3.60782 13.7579 3.68284 13.6829L5.68284 11.6829C5.83905 11.5266 5.83905 11.2734 5.68284 11.1172C5.52663 10.961 5.27336 10.961 5.11715 11.1172L3.8 12.4343V4.36569L5.11715 5.68285C5.27336 5.83906 5.52663 5.83906 5.68284 5.68285C5.83905 5.52664 5.83905 5.27337 5.68284 5.11716L3.68284 3.11716ZM11.4005 3.65006C11.6112 3.65006 11.7993 3.7822 11.8708 3.98045L14.8708 12.3C14.9645 12.5598 14.8298 12.8463 14.5701 12.94C14.3103 13.0337 14.0238 12.899 13.9301 12.6393L12.9482 9.91609H9.85279L8.87084 12.6393C8.77717 12.899 8.49064 13.0337 8.23087 12.94C7.9711 12.8463 7.83646 12.5598 7.93013 12.3L10.9301 3.98045C11.0016 3.7822 11.1897 3.65006 11.4005 3.65006ZM11.4005 5.62405L12.6417 9.06609H10.1593L11.4005 5.62405Z" fill="currentColor"/>
</svg>
