<svg width="16" height="16" viewBox="0 0 16 16" fill="none" xmlns="http://www.w3.org/2000/svg">
<path d="M13.7991 6.78956L13.7827 6.74646L12.1478 2.48105C12.1151 2.39752 12.0564 2.32708 11.9799 2.27845C11.9037 2.22963 11.8143 2.20656 11.7236 2.21134C11.6335 2.21617 11.5469 2.24905 11.4762 2.30528C11.406 2.36207 11.3554 2.43879 11.3317 2.52537L10.2278 5.90376H5.7618L4.65797 2.52537C4.63415 2.43879 4.5835 2.36207 4.51334 2.30528C4.44272 2.24905 4.35614 2.21617 4.26596 2.21134C4.17531 2.20656 4.08587 2.22963 4.00967 2.27845C3.93318 2.32708 3.87446 2.39752 3.84177 2.48105L2.20693 6.74679L2.19047 6.78956C1.70602 8.05316 2.11881 9.48165 3.19759 10.2976L3.20341 10.3018L3.21785 10.3128L5.7081 12.177L6.93981 13.1094L7.68942 13.6762C7.86993 13.813 8.11961 13.813 8.30021 13.6762L9.04973 13.1094L10.2812 12.177L12.7862 10.3018L12.7928 10.2968C13.8708 9.4809 14.2833 8.05288 13.7991 6.78956Z" fill="currentColor"/>
</svg>
