<svg width="15" height="15" viewBox="0 0 15 15" fill="none" xmlns="http://www.w3.org/2000/svg">
<path d="M14.7503 5.93664L14.7292 5.88069L12.6876 0.348898C12.6461 0.240478 12.5725 0.148505 12.4775 0.0861752C12.3824 0.0249043 12.2716 -0.00460582 12.1598 0.00162945C12.0481 0.00786473 11.9409 0.0495451 11.8527 0.121043C11.7655 0.194593 11.7022 0.294257 11.6715 0.40647L10.293 4.78519H4.71093L3.33241 0.40647C3.30251 0.293645 3.23911 0.193483 3.15121 0.120232C3.06302 0.048734 2.95581 0.00705368 2.84408 0.000818405C2.73234 -0.00541687 2.62145 0.0240932 2.52639 0.0853641C2.43159 0.147946 2.3581 0.239838 2.31629 0.348087L0.270765 5.87744L0.250458 5.93339C-0.0434419 6.73065 -0.0797191 7.6055 0.147096 8.42603C0.373912 9.24656 0.851524 9.96829 1.50792 10.4824L1.51495 10.4881L1.53369 10.5019L4.64376 12.9199L6.1824 14.1289L7.11964 14.8636C7.22927 14.95 7.36313 14.9968 7.50078 14.9968C7.63843 14.9968 7.77229 14.95 7.88192 14.8636L8.81916 14.1289L10.3578 12.9199L13.4866 10.4873L13.4944 10.4808C14.1493 9.96657 14.6258 9.24558 14.8523 8.42616C15.0788 7.60673 15.043 6.73313 14.7503 5.93664Z" fill="#E24329"/>
<path d="M14.7503 5.93657L14.7292 5.88062C13.7344 6.09261 12.797 6.53009 11.9839 7.1618L7.5 10.6818C9.02692 11.8811 10.3562 12.9231 10.3562 12.9231L13.485 10.4904L13.4929 10.484C14.1487 9.96976 14.626 9.24831 14.8527 8.42819C15.0795 7.60806 15.0436 6.73365 14.7503 5.93657Z" fill="#FC6D26"/>
<path d="M4.6438 12.9231L6.18243 14.1322L7.11967 14.8668C7.2293 14.9532 7.36317 15 7.50081 15C7.63846 15 7.77233 14.9532 7.88196 14.8668L8.8192 14.1322L10.3578 12.9231C10.3578 12.9231 9.02695 11.8779 7.50003 10.6819C5.97312 11.8779 4.6438 12.9231 4.6438 12.9231Z" fill="#FCA326"/>
<path d="M3.01531 7.16187C2.20288 6.52886 1.26565 6.09024 0.270765 5.87744L0.250458 5.93339C-0.0434419 6.73065 -0.0797191 7.60549 0.147096 8.42602C0.373912 9.24655 0.851524 9.96829 1.50792 10.4824L1.51495 10.4881L1.53369 10.5019L4.64376 12.9199C4.64376 12.9199 5.97152 11.8779 7.5 10.6786L3.01531 7.16187Z" fill="#FC6D26"/>
</svg>
