<svg width="16" height="16" viewBox="0 0 16 16" fill="none" xmlns="http://www.w3.org/2000/svg">
<path d="M15.1443 7.91154C14.9951 7.73085 14.7277 7.70523 14.547 7.85435C14.3662 8.00354 14.3407 8.27091 14.4898 8.45163C14.9164 8.9686 15.1514 9.62322 15.1514 10.2949C15.1514 11.8929 13.8513 13.193 12.2533 13.193C10.8052 13.193 9.60177 12.1253 9.38874 10.7359L9.38859 10.7348C9.38203 10.6918 9.37671 10.6485 9.37203 10.605C9.37084 10.5939 9.36981 10.5828 9.36874 10.5717C9.36546 10.5373 9.3629 10.5027 9.36081 10.468C9.36009 10.4556 9.35918 10.4433 9.35865 10.431C9.35656 10.3859 9.35521 10.3406 9.35521 10.2949C9.35521 8.69688 10.6553 7.39682 12.2533 7.39682C12.443 7.39682 12.634 7.41567 12.8211 7.45279C13.037 7.4956 13.2499 7.36623 13.3112 7.15482C13.4173 6.78892 13.4711 6.41076 13.4711 6.03083C13.4711 3.80821 11.6629 2 9.44024 2C8.06769 2 6.82116 2.68015 6.07973 3.80456C5.60467 3.49971 5.05095 3.33574 4.47767 3.33574C2.83921 3.33574 1.50618 4.66877 1.50618 6.30726C1.50618 6.48861 1.5224 6.66761 1.55409 6.84248C0.60206 7.39914 0 8.43326 0 9.54656C0 11.2722 1.40393 12.6761 3.12958 12.6761H9.36281C10.0506 13.5095 11.091 14.0416 12.2534 14.0416C14.3192 14.0416 16 12.3609 16 10.295C15.9999 9.42663 15.6961 8.58016 15.1443 7.91154ZM8.83353 11.8276H3.12958C1.87181 11.8276 0.848559 10.8043 0.848559 9.54656C0.848559 8.81941 1.20106 8.13854 1.77377 7.71285C2.28399 8.66669 3.28127 9.27882 4.39251 9.27882C4.4058 9.27882 4.41898 9.27844 4.43217 9.27797L4.44258 9.27769C4.67401 9.27366 4.85954 9.08479 4.85942 8.85329C4.85929 8.62176 4.67358 8.43307 4.44211 8.42926C3.29108 8.41029 2.35471 7.45839 2.35471 6.3073C2.35471 5.13668 3.30705 4.1843 4.47764 4.1843C5.01292 4.1843 5.52432 4.38449 5.91766 4.7479C6.01591 4.83868 6.15135 4.87793 6.28279 4.85346C6.41435 4.82911 6.52669 4.74411 6.58597 4.62415C7.12697 3.52893 8.22056 2.84853 9.44015 2.84853C11.1949 2.84853 12.6225 4.27609 12.6225 6.0308C12.6225 6.20905 12.6074 6.3868 12.5776 6.56236C12.4696 6.55298 12.3613 6.54823 12.2532 6.54823C10.1874 6.54823 8.50659 8.22894 8.50659 10.2949C8.50659 10.3276 8.50703 10.3603 8.50787 10.3928C8.50834 10.4108 8.50922 10.4287 8.5099 10.4467C8.51047 10.4608 8.51084 10.4751 8.51156 10.4892C8.51287 10.515 8.51465 10.5408 8.5165 10.5665C8.51693 10.5723 8.51722 10.5782 8.51765 10.5841C8.52 10.615 8.52278 10.6459 8.52587 10.6766L8.52597 10.6776C8.56647 11.0772 8.67006 11.4643 8.83353 11.8276Z" fill="currentColor"/>
<path d="M11.0781 10.0105C11.0781 10.1841 10.6562 10.336 10.6562 10.336V10.5531C10.6562 10.5531 11.0781 10.705 11.0781 10.8786C11.0781 11.1607 11.0218 11.2258 10.9656 11.508C10.8812 11.9638 11.1906 12.1808 11.4718 12.1808H12.0625V11.7467C12.0625 11.7467 11.5562 11.7901 11.5562 11.5297C11.5562 11.3344 11.6125 11.3344 11.6687 10.9003C11.6968 10.705 11.5281 10.5531 11.3593 10.4445C11.5281 10.336 11.6968 10.2058 11.6687 10.0105C11.5843 9.57641 11.5562 9.57641 11.5562 9.38108C11.5562 9.12065 12.0625 9.14235 12.0625 9.14235V8.70829H11.4718C11.1625 8.70829 10.8812 8.92532 10.9656 9.38108C11.0218 9.66322 11.0781 9.72833 11.0781 10.0105Z" fill="currentColor"/>
<path d="M13.6281 9.38108C13.5718 9.66322 13.5156 9.72833 13.5156 10.0105C13.5156 10.1841 13.9374 10.336 13.9374 10.336V10.5531C13.9374 10.5531 13.5156 10.705 13.5156 10.8786C13.5156 11.1607 13.5718 11.2258 13.6281 11.508C13.7124 11.9638 13.4031 12.1808 13.1218 12.1808H12.5312V11.7467C12.5312 11.7467 13.0374 11.7901 13.0374 11.5297C13.0374 11.3344 12.9812 11.3344 12.9249 10.9003C12.8968 10.705 13.0656 10.5531 13.2343 10.4445C13.0656 10.336 12.8968 10.2058 12.9249 10.0105C12.9812 9.57641 13.0374 9.57641 13.0374 9.38108C13.0374 9.12065 12.5312 9.14235 12.5312 9.14235V8.70829H13.1218C13.4312 8.70829 13.7124 8.92532 13.6281 9.38108Z" fill="currentColor"/>
</svg>
