<svg width="16" height="16" viewBox="0 0 16 16" fill="none" xmlns="http://www.w3.org/2000/svg">
<path fill-rule="evenodd" clip-rule="evenodd" d="M5.5 1.5C4.11929 1.5 3 2.61929 3 4V6C3 6.82843 2.32843 7.5 1.5 7.5H1C0.723858 7.5 0.5 7.72386 0.5 8C0.5 8.27614 0.723858 8.5 1 8.5H1.5C2.32843 8.5 3 9.17157 3 10V12C3 13.3807 4.11929 14.5 5.5 14.5H6C6.27614 14.5 6.5 14.2761 6.5 14C6.5 13.7239 6.27614 13.5 6 13.5H5.5C4.67157 13.5 4 12.8284 4 12V10C4 9.1822 3.60733 8.45612 3.00024 8C3.60733 7.54389 4 6.8178 4 6V4C4 3.17157 4.67157 2.5 5.5 2.5H6C6.27614 2.5 6.5 2.27614 6.5 2C6.5 1.72386 6.27614 1.5 6 1.5H5.5ZM15.5 8C15.5 7.72386 15.2761 7.5 15 7.5H14.5C13.6716 7.5 13 6.82843 13 6V4C13 2.61929 11.8807 1.5 10.5 1.5H10C9.72386 1.5 9.5 1.72386 9.5 2C9.5 2.27614 9.72386 2.5 10 2.5H10.5C11.3284 2.5 12 3.17157 12 4V6C12 6.8178 12.3927 7.54388 12.9998 8C12.3927 8.45611 12 9.1822 12 10V12C12 12.8284 11.3284 13.5 10.5 13.5H10C9.72386 13.5 9.5 13.7239 9.5 14C9.5 14.2761 9.72386 14.5 10 14.5H10.5C11.8807 14.5 13 13.3807 13 12V10C13 9.17157 13.6716 8.5 14.5 8.5H15C15.2761 8.5 15.5 8.27614 15.5 8Z" fill="currentColor"/>
</svg>
