<svg width="24" height="24" viewBox="0 0 24 24" fill="none" xmlns="http://www.w3.org/2000/svg">
<path fill-rule="evenodd" clip-rule="evenodd" d="M7.23996 8.48026L8.90685 9.431L10.0614 10.0895C10.542 9.60176 11.2102 9.29936 11.949 9.29936C12.3508 9.29936 12.7317 9.38878 13.0729 9.5488L9.29954 11.918C9.30152 11.7451 9.32007 11.5762 9.35367 11.4127L8.16368 10.734L6.57179 9.82599V13.6308L5.0718 14.5726V8L12 4L17.1628 6.98074L15.7257 7.88309L12 5.73205L7.23996 8.48026ZM11.25 17.8349L8.2637 16.1108L6.8266 17.0131L11.25 19.567V19.6667H11.4226L12 20L12.5774 19.6667H12.75V19.567L18.9282 16V9.41461L17.4282 10.3565V15.134L12.75 17.8349V14.4755C13.7646 14.1542 14.5149 13.2385 14.5921 12.1372L10.9696 14.4118C11.0607 14.4481 11.1542 14.4794 11.25 14.5055V17.8349ZM20.5541 5.70503L2.60118 16.9776L3.39882 18.2479L21.3518 6.97537L20.5541 5.70503Z" fill="currentColor"/>
</svg>
