<svg width="16" height="16" viewBox="0 0 16 16" fill="none" xmlns="http://www.w3.org/2000/svg">
  <path fill-rule="evenodd" clip-rule="evenodd" d="M7.41004 13.4448H8.59402L8.62175 13.4135C8.87975 13.1253 9.18587 12.8754 9.53046 12.6743C10.9218 11.8627 13.2997 11.8187 14.6 12.7765H15H16V11.7765V4.11765C16 4.11765 15.25 2 11.84 2C10.1225 2 9.16092 2.53723 8.62954 3.0705C8.23284 3.46863 8.07588 3.86455 8.02311 4.03309H7.97689C7.92412 3.86455 7.76716 3.46863 7.37046 3.0705C6.83908 2.53723 5.87754 2 4.16 2C0.75 2 0 4.11765 0 4.11765V11.7671V12.7671H1H1.4C2.70139 11.8085 5.08128 11.8543 6.47175 12.6688C6.81683 12.8709 7.12315 13.1222 7.38098 13.4118L7.41004 13.4448ZM8.5 4.31664V12.166C8.6666 12.0368 8.84249 11.918 9.02659 11.8106C9.9103 11.2951 11.0388 11.0536 12.1072 11.0619C13.0552 11.0693 14.0723 11.2749 14.9014 11.7765H15V4.34722C14.994 4.33707 14.9875 4.3264 14.9806 4.31526C14.9023 4.1895 14.7653 4.00557 14.5456 3.81604C14.1234 3.45185 13.3187 3 11.84 3C10.3604 3 9.66629 3.4506 9.34547 3.76881C9.17399 3.93889 9.07704 4.10278 9.02499 4.21319C8.99893 4.26848 8.98451 4.30957 8.97809 4.32977C8.97536 4.33835 8.97415 4.34292 8.97415 4.34292L8.97425 4.34253L8.9761 4.33482L8.97782 4.32709L8.97885 4.32221L8.97941 4.31951L8.9797 4.3181C8.97973 4.31797 8.97976 4.31784 8.97447 4.31664H8.5ZM7.5 4.31664H7.02553C7.02024 4.31784 7.02027 4.31797 7.0203 4.3181L7.02059 4.31951L7.02115 4.32221L7.02218 4.32709L7.0239 4.33482L7.02575 4.34253L7.02585 4.34292C7.02585 4.34292 7.02464 4.33835 7.02191 4.32977C7.01549 4.30957 7.00107 4.26848 6.97501 4.21319C6.92296 4.10278 6.82601 3.93889 6.65453 3.76881C6.33371 3.4506 5.63964 3 4.16 3C2.68128 3 1.87662 3.45185 1.45441 3.81604C1.23469 4.00557 1.0977 4.1895 1.0194 4.31526C1.01247 4.3264 1.00601 4.33707 1 4.34722V11.7671H1.09865C1.92851 11.2651 2.94667 11.0597 3.89543 11.053C4.96455 11.0455 6.09369 11.2884 6.97719 11.8059C7.15995 11.913 7.33456 12.0313 7.5 12.1599V4.31664Z" fill="currentColor" />
</svg>
