<svg width="16" height="16" viewBox="0 0 16 16" fill="none" xmlns="http://www.w3.org/2000/svg">
  <path
    fillRule="evenodd"
    clipRule="evenodd"
    d="M14.6096 5.68765L13.4349 7.15603C13.4268 7.10387 13.418 7.05185 13.4084 7C13.2569 6.18064 12.9203 5.40189 12.419 4.72539C11.7169 3.77797 10.7289 3.08128 9.60075 2.73808C8.47259 2.39489 7.264 2.42337 6.15326 2.81933C5.36015 3.10206 4.64691 3.56145 4.06479 4.15764C3.83166 4.3964 3.61956 4.6571 3.43178 4.93718L3.43192 4.93728L4.26237 5.49406L4.26252 5.49416C4.79977 4.69282 5.58035 4.08538 6.4891 3.76143C7.39785 3.43748 8.38666 3.41418 9.30967 3.69496C10.2327 3.97574 11.041 4.54574 11.6154 5.32088C12.1002 5.97502 12.3966 6.74603 12.4774 7.55063L10.2774 6.08398L9.7227 6.91603L12.7227 8.91603L13.1041 9.1703L13.3905 8.81235L15.3905 6.31235L14.6096 5.68765ZM2.60962 7.18765L0.609619 9.68765L1.39049 10.3123L2.56519 8.84397C2.57329 8.89614 2.58213 8.94815 2.59172 9C2.74323 9.81936 3.07981 10.5981 3.58113 11.2746C4.2832 12.222 5.27119 12.9187 6.39935 13.2619C7.52751 13.6051 8.7361 13.5766 9.84684 13.1807C10.64 12.8979 11.3532 12.4386 11.9353 11.8424C12.168 11.6041 12.3797 11.344 12.5672 11.0646L12.5683 11.0628L12.5682 11.0627L11.7377 10.5059L11.7376 10.5058L11.7365 10.5074C11.1993 11.308 10.4192 11.9148 9.51101 12.2386C8.60225 12.5625 7.61344 12.5858 6.69044 12.305C5.76744 12.0243 4.95911 11.4543 4.38471 10.6791C3.89996 10.025 3.60346 9.25397 3.52271 8.44937L5.7227 9.91603L6.2774 9.08398L3.2774 7.08398L2.89598 6.8297L2.60962 7.18765Z"
    fill="currentColor"
  />
</svg>