    <svg width="15" height="15" viewBox="0 0 15 15" fill="none" xmlns="http://www.w3.org/2000/svg">
          <path fill-rule="evenodd" clip-rule="evenodd" d="M1.25 1C0.559643 1 0 1.55964 0 2.25V10.75C0 11.4404 0.559644 12 1.25 12H5.07341L4.82991 13.2986C4.76645 13.6371 5.02612 13.95 5.37049 13.95H9.62951C9.97389 13.95 10.2336 13.6371 10.1701 13.2986L9.92659 12H13.75C14.4404 12 15 11.4404 15 10.75V2.25C15 1.55964 14.4404 1 13.75 1H1.25ZM9.01091 12H5.98909L5.79222 13.05H9.20778L9.01091 12ZM5.06835 6.17846C3.92411 6.16726 3 5.23618 3 4.08929C3 2.93541 3.93541 2 5.08929 2C6.23598 2 7.16689 2.9238 7.17846 4.06776L7.17857 4.0831V5.14011C7.17857 5.71362 6.71362 6.17857 6.14011 6.17857H5.08311L5.06835 6.17846ZM12 4.57143C12 5.62276 11.1588 6.4776 10.1127 6.49957L10.0953 6.49992L10.0838 6.49999H10.0741H10.0714H10.0688H9.09477C8.56902 6.49999 8.14286 6.07383 8.14286 5.54808V4.55906C8.14286 4.54923 8.14302 4.53944 8.14329 4.52968C8.16552 3.48384 9.02025 2.64286 10.0714 2.64286C11.1365 2.64286 12 3.50631 12 4.57143ZM7.53246 9.19742C7.53225 9.20899 7.53214 9.22057 7.53214 9.23214C7.53214 10.2085 8.32366 11 9.3 11C10.2763 11 11.0679 10.2085 11.0679 9.23214C11.0679 8.25574 10.2763 7.46428 9.3 7.46428C9.28832 7.46428 9.2767 7.46439 9.26507 7.4646C9.25671 7.46439 9.2483 7.46428 9.23989 7.46428H8.47618C7.95482 7.46428 7.53214 7.88696 7.53214 8.40832V9.17203C7.53214 9.1805 7.53225 9.18901 7.53246 9.19742ZM6.56786 8.75C6.56786 8.72503 6.56727 8.70023 6.56614 8.67558C6.56727 8.65683 6.56786 8.63798 6.56786 8.61896V8.07746C6.56786 7.5613 6.14941 7.14285 5.63323 7.14285H5.09175C5.07273 7.14285 5.05383 7.14339 5.03508 7.14451C5.01043 7.14339 4.98564 7.14285 4.96071 7.14285C4.07312 7.14285 3.35357 7.86237 3.35357 8.75C3.35357 9.63757 4.07312 10.3571 4.96071 10.3571C5.84831 10.3571 6.56786 9.63757 6.56786 8.75Z" fill="currentcolor" />
        </svg>