<svg width="16" height="16" viewBox="0 0 16 16" fill="none" xmlns="http://www.w3.org/2000/svg">
<path d="M8.5 3.16667H11.5C11.8536 3.16667 12.1928 3.30714 12.4428 3.55719C12.6929 3.80724 12.8333 4.14638 12.8333 4.5V11.5C12.8333 11.8536 12.6929 12.1928 12.4428 12.4428C12.1928 12.6929 11.8536 12.8333 11.5 12.8333H8.5M3.16667 11.5V4.5C3.16667 4.14638 3.30714 3.80724 3.55719 3.55719C3.80724 3.30714 4.14638 3.16667 4.5 3.16667H6.16667V12.8333H4.5C4.14638 12.8333 3.80724 12.6929 3.55719 12.4428C3.30714 12.1928 3.16667 11.8536 3.16667 11.5Z" stroke="currentColor" stroke-width="1.5" stroke-linecap="round" stroke-linejoin="round"/>
</svg>
