<svg width="15" height="15" viewBox="0 0 15 15" fill="none" xmlns="http://www.w3.org/2000/svg">
<path
    fill-rule="evenodd"
    clip-rule="evenodd"
    d="M3 4.5C3 5.32843 3.67157 6 4.5 6C5.32843 6 6 5.32843 6 4.5C6 3.67157 5.32843 3 4.5 3C3.67157 3 3 3.67157 3 4.5ZM9 4.5C9 5.32843 9.67157 6 10.5 6C11.3284 6 12 5.32843 12 4.5C12 3.67157 11.3284 3 10.5 3C9.67157 3 9 3.67157 9 4.5ZM10.5 12C9.67157 12 9 11.3284 9 10.5C9 9.67157 9.67157 9 10.5 9C11.3284 9 12 9.67157 12 10.5C12 11.3284 11.3284 12 10.5 12ZM3 10.5C3 11.3284 3.67157 12 4.5 12C5.32843 12 6 11.3284 6 10.5C6 9.67157 5.32843 9 4.5 9C3.67157 9 3 9.67157 3 10.5Z"
    fill="currentColor"
  />
</svg>
