<svg width="16" height="16" viewBox="0 0 16 16" fill="none" xmlns="http://www.w3.org/2000/svg">
<g clip-path="url(#clip0_348_146)">
<mask id="mask0_348_146" style="mask-type:luminance" maskUnits="userSpaceOnUse" x="0" y="0" width="16" height="16">
<path d="M16 0H0V16H16V0Z" fill="currentColor"/>
</mask>
<g mask="url(#mask0_348_146)">
<path d="M4.584 11.416C4.78 14.0312 6.2096 16 8 16C9.7904 16 11.22 14.0312 11.416 11.416C14.0312 11.22 16 9.7904 16 8C16 6.2096 14.0312 4.78 11.416 4.584C11.22 1.9688 9.7904 0 8 0C6.2096 0 4.78 1.9688 4.584 4.584C1.9688 4.78 0 6.2096 0 8C0 9.7904 1.9688 11.22 4.584 11.416ZM9.4344 13.6896C9.2 14.0744 8.6976 14.72 8 14.72C7.3024 14.72 6.8 14.0744 6.5656 13.6896C6.1856 13.0712 5.944 12.2784 5.8672 11.412C7.7576 11.2584 9.3072 10.4592 10 9.3464C10.1077 9.82344 10.1614 10.311 10.16 10.8C10.16 11.9016 9.9024 12.928 9.4344 13.6896ZM6.88 8C6.88 7.77849 6.94569 7.56194 7.06875 7.37776C7.19182 7.19358 7.36674 7.05002 7.57139 6.96526C7.77605 6.88049 8.00128 6.8583 8.21848 6.90152C8.43576 6.94474 8.63536 7.05141 8.79192 7.20804C8.94856 7.36467 9.05528 7.56424 9.09848 7.7815C9.14168 7.99876 9.11952 8.22392 9.03472 8.42864C8.95 8.63328 8.8064 8.80816 8.62224 8.93128C8.43808 9.05432 8.22152 9.12 8 9.12C7.70296 9.12 7.41808 9.002 7.20804 8.79192C6.998 8.58192 6.88 8.29704 6.88 8ZM13.6896 6.5656C14.0744 6.8 14.72 7.3024 14.72 8C14.72 8.6976 14.0744 9.2 13.6896 9.4344C13.0712 9.8144 12.2784 10.056 11.412 10.1328C11.2584 8.24 10.4592 6.6968 9.3464 6C9.82344 5.89234 10.311 5.83867 10.8 5.84C11.9016 5.84 12.928 6.0976 13.6896 6.5656ZM6.5656 2.3104C6.8 1.9256 7.3024 1.28 8 1.28C8.6976 1.28 9.2 1.9256 9.4344 2.3104C9.8144 2.9288 10.056 3.7224 10.1328 4.588C8.24 4.7416 6.6968 5.5408 6 6.6536C5.89234 6.1766 5.83867 5.689 5.84 5.2C5.84 4.0984 6.0976 3.0728 6.5656 2.3104ZM2.3104 6.5656C2.9288 6.1856 3.7224 5.944 4.588 5.8672C4.7416 7.76 5.5408 9.3032 6.6536 10C6.1766 10.1077 5.689 10.1614 5.2 10.16C4.0984 10.16 3.072 9.9024 2.3104 9.4344C1.9256 9.2 1.28 8.6976 1.28 8C1.28 7.3024 1.9256 6.8 2.3104 6.5656Z" fill="currentColor"/>
</g>
</g>
<defs>
<clipPath id="clip0_348_146">
<rect width="16" height="16" fill="currentColor"/>
</clipPath>
</defs>
</svg>
