<svg width="473" height="55" viewBox="0 0 473 55" fill="none" xmlns="http://www.w3.org/2000/svg">
<path fill-rule="evenodd" clip-rule="evenodd" d="M30.8148 1.31205C25.2257 -0.689711 18.0792 1.9716 16.6177 9.20749C15.7882 13.3144 12.6276 16.5532 8.5422 17.4828C-2.64533 20.0286 -2.44974 36.0332 8.79666 38.3049C12.9035 39.1344 16.1423 42.295 17.072 46.3803C18.6849 53.4683 25.7 55.9871 31.2025 54.0213C36.7916 56.0231 43.938 53.3618 45.3996 46.1259C46.2291 42.019 49.3897 38.7802 53.4751 37.8506C64.6626 35.3048 64.467 19.3001 53.2206 17.0285C49.1137 16.199 45.8749 13.0384 44.9453 8.95303C43.3324 1.86511 36.3172 -0.653711 30.8148 1.31205ZM30.8148 1.31205C27.6322 2.44904 24.9556 5.0863 24.1232 9.20749C23.2937 13.3144 20.1331 16.5532 16.0477 17.4828C4.86021 20.0286 5.0558 36.0332 16.3022 38.3049C20.4091 39.1344 23.6479 42.295 24.5775 46.3803C25.4853 50.3699 28.1047 52.9118 31.2025 54.0213C34.3851 52.8843 37.0616 50.2471 37.894 46.1259C38.7236 42.019 41.8842 38.7802 45.9695 37.8506C57.157 35.3048 56.9615 19.3001 45.715 17.0285C41.6082 16.199 38.3694 13.0384 37.4397 8.95303C36.5319 4.9635 33.9125 2.42153 30.8148 1.31205Z" fill="currentColor"/>
<path d="M456.658 15.0383C466.769 15.0383 472.835 22.8003 472.835 32.2581C472.835 41.7159 466.769 49.4779 456.658 49.4779C446.548 49.4779 440.482 41.7159 440.482 32.2581C440.482 22.8003 446.548 15.0383 456.658 15.0383ZM456.658 43.7379C462.92 43.7379 466.573 38.585 466.573 32.2581C466.573 25.9311 462.92 20.7782 456.658 20.7782C450.397 20.7782 446.744 25.9311 446.744 32.2581C446.744 38.585 450.397 43.7379 456.658 43.7379Z" fill="currentColor"/>
<path d="M429.368 9.29839V1.99303H436.152V9.29839H429.368ZM429.629 48.9561V15.5601H435.891V48.9561H429.629Z" fill="currentColor"/>
<path d="M416.168 1.99303H422.43V48.9561H416.168V46.1513C416.168 44.9772 416.299 44.0641 416.821 42.6291C417.016 42.1073 417.342 41.5202 416.69 41.3246C416.299 41.1941 416.103 41.7159 416.038 41.9116C414.472 46.6079 410.037 49.4779 404.819 49.4779C396.144 49.4779 390.078 42.1725 390.078 32.2581C390.078 22.3437 396.144 15.0383 404.819 15.0383C410.168 15.0383 414.538 17.9735 416.038 22.4741C416.103 22.6698 416.299 23.3221 416.821 23.1264C417.408 22.9307 417.016 22.2785 416.821 21.7566C416.299 20.3869 416.168 19.4085 416.168 18.1692V1.99303ZM406.123 43.7379C412.059 43.7379 416.168 38.4546 416.168 32.2581C416.168 26.0616 412.059 20.7782 406.123 20.7782C399.601 20.7782 396.34 26.0616 396.34 32.2581C396.34 38.4546 399.601 43.7379 406.123 43.7379Z" fill="currentColor"/>
<path d="M367.07 49.4778C359.373 49.4778 354.677 45.1729 354.677 35.3889V15.5601H360.938V34.0844C360.938 41.8464 364.265 43.9988 368.635 43.9988C373.462 43.9988 378.68 39.1068 378.68 31.1492V15.5601H384.942V48.956H378.68V46.7383C378.68 45.3686 378.81 43.9988 379.397 42.3029C379.593 41.7159 379.854 41.1289 379.332 40.9332C378.941 40.8027 378.745 41.2593 378.615 41.5202C377.049 44.6511 373.07 49.4778 367.07 49.4778Z" fill="currentColor"/>
<path d="M350.036 21.0391H340.643V38.5198C340.643 42.303 341.426 43.477 345.078 43.477H350.036V48.9561H344.557C337.643 48.9561 334.381 46.4122 334.381 39.1721V21.0391H328.119V15.5601H334.381V6.16751H340.643V15.5601H350.036V21.0391Z" fill="currentColor"/>
<path d="M296.922 37.3457H303.054C303.119 39.8896 305.206 43.9988 311.729 43.9988C318.121 43.9988 319.882 41.455 319.882 39.3025C319.882 36.3021 317.077 35.389 309.446 34.6062C300.705 33.6931 297.966 29.7143 297.966 25.3441C297.966 20.3217 302.532 15.0383 311.663 15.0383C320.078 15.0383 324.644 19.8651 325.1 26.1268H318.969C318.773 23.9743 317.338 20.5173 311.468 20.5173C306.184 20.5173 304.228 22.6698 304.228 24.8875C304.228 27.04 305.467 28.4749 312.707 29.2577C321.708 30.2361 326.144 32.8451 326.144 38.3241C326.144 45.1077 320.599 49.4779 311.468 49.4779C302.401 49.4779 297.248 44.7163 296.922 37.3457Z" fill="currentColor"/>
<path d="M243.906 37.3457H250.037C250.103 39.8896 252.19 43.9988 258.713 43.9988C265.105 43.9988 266.866 41.455 266.866 39.3025C266.866 36.3021 264.061 35.389 256.43 34.6062C247.689 33.6931 244.95 29.7143 244.95 25.3441C244.95 20.3217 249.516 15.0383 258.647 15.0383C267.062 15.0383 271.627 19.8651 272.084 26.1268H265.953C265.757 23.9743 264.322 20.5173 258.452 20.5173C253.168 20.5173 251.211 22.6698 251.211 24.8875C251.211 27.04 252.451 28.4749 259.691 29.2577C268.692 30.2361 273.128 32.8451 273.128 38.3241C273.128 45.1077 267.583 49.4779 258.452 49.4779C249.385 49.4779 244.232 44.7163 243.906 37.3457Z" fill="currentColor"/>
<path d="M227.421 15.0383C235.117 15.0383 239.814 19.3433 239.814 29.1272V48.9561H233.552V30.4317C233.552 22.6698 230.225 20.5173 225.855 20.5173C221.028 20.5173 215.81 25.4093 215.81 33.3669V48.9561H209.548V15.5601H215.81V17.7778C215.81 19.1476 215.68 20.5173 215.093 22.2132C214.897 22.8003 214.636 23.4525 215.158 23.583C215.549 23.7134 215.745 23.2568 215.875 22.9959C217.18 19.7346 221.42 15.0383 227.421 15.0383Z" fill="currentColor"/>
<path d="M204.937 31.8015C204.937 32.7147 204.871 33.3669 204.741 34.0844H179.824C180.281 39.433 183.934 43.7379 190 43.7379C194.5 43.7379 196.718 41.5202 197.892 37.6719H204.35C202.98 43.8684 198.414 49.4779 189.869 49.4779C179.368 49.4779 173.628 41.7159 173.628 32.2581C173.628 22.2132 180.151 15.0383 189.739 15.0383C197.175 15.0383 204.937 19.9303 204.937 31.8015ZM180.151 28.8663H198.675C198.283 23.9743 195.153 20.5173 190.065 20.5173C183.803 20.5173 181.064 24.3657 180.151 28.8663Z" fill="currentColor"/>
<path d="M174.288 48.9561H166.722L154.851 33.8235L151.328 37.3458V48.9561H145.067V1.99303H151.328V25.8659C151.328 28.1488 150.937 29.2577 149.959 30.6274C149.763 30.9536 149.372 31.4102 149.763 31.6711C150.154 31.932 150.415 31.4754 150.676 31.2145L165.287 15.5601H173.245L158.764 29.9752L174.288 48.9561Z" fill="currentColor"/>
<path d="M124.303 15.0383C134.413 15.0383 140.479 22.8003 140.479 32.2581C140.479 41.7159 134.413 49.4779 124.303 49.4779C114.193 49.4779 108.127 41.7159 108.127 32.2581C108.127 22.8003 114.193 15.0383 124.303 15.0383ZM124.303 43.7379C130.565 43.7379 134.218 38.585 134.218 32.2581C134.218 25.9311 130.565 20.7782 124.303 20.7782C118.041 20.7782 114.389 25.9311 114.389 32.2581C114.389 38.585 118.041 43.7379 124.303 43.7379Z" fill="currentColor"/>
<path d="M105.613 21.0391H96.22V38.5198C96.22 42.303 97.0027 43.477 100.655 43.477H105.613V48.9561H100.134C93.2196 48.9561 89.9582 46.4122 89.9582 39.1721V21.0391H83.6965V15.5601H89.9582V6.16751H96.22V15.5601H105.613V21.0391Z" fill="currentColor"/>
</svg>
