<svg width="721" height="89" viewBox="0 0 721 89" fill="none" xmlns="http://www.w3.org/2000/svg">
  <path d="M690.59 24.5931C709.296 24.5931 720.52 38.9546 720.52 56.4539C720.52 73.9532 709.296 88.3146 690.59 88.3146C671.884 88.3146 660.66 73.9532 660.66 56.4539C660.66 38.9546 671.884 24.5931 690.59 24.5931ZM690.59 77.6944C702.176 77.6944 708.934 68.1603 708.934 56.4539C708.934 44.7475 702.176 35.2134 690.59 35.2134C679.004 35.2134 672.246 44.7475 672.246 56.4539C672.246 68.1603 679.004 77.6944 690.59 77.6944Z" fill="currentColor"/>
  <path d="M640.096 13.9729V0.456192H652.647V13.9729H640.096ZM640.579 87.3492V25.5586H652.165V87.3492H640.579Z" fill="currentColor"/>
  <path d="M615.673 0.456192H627.259V87.3492H615.673V82.1597C615.673 79.9874 615.915 78.2978 616.88 75.6428C617.242 74.6773 617.846 73.5911 616.639 73.2291C615.915 72.9877 615.553 73.9532 615.432 74.3152C612.536 83.0045 604.329 88.3147 594.674 88.3147C578.623 88.3147 567.399 74.798 567.399 56.4539C567.399 38.1098 578.623 24.5931 594.674 24.5931C604.57 24.5931 612.656 30.024 615.432 38.3512C615.553 38.7133 615.915 39.9201 616.88 39.558C617.966 39.196 617.242 37.9891 616.88 37.0237C615.915 34.4893 615.673 32.679 615.673 30.386V0.456192ZM597.088 77.6944C608.07 77.6944 615.673 67.9189 615.673 56.4539C615.673 44.9889 608.07 35.2134 597.088 35.2134C585.019 35.2134 578.985 44.9889 578.985 56.4539C578.985 67.9189 585.019 77.6944 597.088 77.6944Z" fill="currentColor"/>
  <path d="M524.829 88.3146C510.588 88.3146 501.899 80.3494 501.899 62.2467V25.5586H513.484V59.833C513.484 74.1945 519.639 78.1771 527.725 78.1771C536.656 78.1771 546.311 69.1257 546.311 54.4022V25.5586H557.896V87.3491H546.311V83.2459C546.311 80.7115 546.552 78.1771 547.638 75.0393C548 73.9531 548.483 72.867 547.517 72.5049C546.793 72.2636 546.431 73.1083 546.19 73.5911C543.293 79.3839 535.932 88.3146 524.829 88.3146Z" fill="currentColor"/>
  <path d="M493.312 35.6961H475.933V68.0396C475.933 75.0393 477.381 77.2117 484.14 77.2117H493.312V87.3492H483.174C470.382 87.3492 464.347 82.6425 464.347 69.2465V35.6961H452.762V25.5586H464.347V8.17999H475.933V25.5586H493.312V35.6961Z" fill="currentColor"/>
  <path d="M395.039 65.8673H406.384C406.504 70.574 410.366 78.1771 422.435 78.1771C434.262 78.1771 437.52 73.4704 437.52 69.4878C437.52 63.9363 432.331 62.2467 418.211 60.7985C402.039 59.1089 396.97 51.7472 396.97 43.6613C396.97 34.3686 405.418 24.5931 422.314 24.5931C437.882 24.5931 446.33 33.5238 447.175 45.1095H435.831C435.469 41.1269 432.814 34.7306 421.952 34.7306C412.176 34.7306 408.556 38.7132 408.556 42.8165C408.556 46.7991 410.849 49.4542 424.245 50.9024C440.899 52.7126 449.106 57.54 449.106 67.6776C449.106 80.2288 438.848 88.3146 421.952 88.3146C405.177 88.3146 395.643 79.5047 395.039 65.8673Z" fill="currentColor"/>
  <path d="M296.946 65.8673H308.291C308.411 70.574 312.273 78.1771 324.342 78.1771C336.169 78.1771 339.427 73.4704 339.427 69.4878C339.427 63.9363 334.238 62.2467 320.118 60.7985C303.946 59.1089 298.877 51.7472 298.877 43.6613C298.877 34.3686 307.325 24.5931 324.221 24.5931C339.79 24.5931 348.237 33.5238 349.082 45.1095H337.738C337.376 41.1269 334.721 34.7306 323.859 34.7306C314.084 34.7306 310.463 38.7132 310.463 42.8165C310.463 46.7991 312.756 49.4542 326.152 50.9024C342.807 52.7126 351.013 57.54 351.013 67.6776C351.013 80.2288 340.755 88.3146 323.859 88.3146C307.084 88.3146 297.55 79.5047 296.946 65.8673Z" fill="currentColor"/>
  <path d="M266.444 24.5931C280.685 24.5931 289.374 32.5583 289.374 50.661V87.3492H277.788V53.0747C277.788 38.7132 271.633 34.7306 263.548 34.7306C254.617 34.7306 244.962 43.782 244.962 58.5055V87.3492H233.376V25.5586H244.962V29.6619C244.962 32.1963 244.721 34.7306 243.635 37.8684C243.273 38.9546 242.79 40.1614 243.755 40.4028C244.479 40.6442 244.841 39.7994 245.083 39.3167C247.497 33.2824 255.341 24.5931 266.444 24.5931Z" fill="currentColor"/>
  <path d="M224.843 55.6091C224.843 57.2987 224.723 58.5055 224.481 59.833H178.38C179.224 69.7292 185.983 77.6944 197.207 77.6944C205.534 77.6944 209.637 73.5911 211.809 66.4707H223.757C221.223 77.9358 212.775 88.3146 196.965 88.3146C177.535 88.3146 166.915 73.9532 166.915 56.4539C166.915 37.8684 178.983 24.5931 196.724 24.5931C210.482 24.5931 224.843 33.6445 224.843 55.6091ZM178.983 50.1783H213.258C212.533 41.1269 206.741 34.7306 197.327 34.7306C185.741 34.7306 180.673 41.851 178.983 50.1783Z" fill="currentColor"/>
  <path d="M168.136 87.3492H154.137L132.172 59.3503L125.655 65.8673V87.3492H114.07V0.456192H125.655V44.6268C125.655 48.8508 124.931 50.9024 123.121 53.4368C122.759 54.0402 122.035 54.885 122.759 55.3677C123.483 55.8505 123.966 55.0057 124.448 54.5229L151.482 25.5586H166.205L139.413 52.2299L168.136 87.3492Z" fill="currentColor"/>
  <path d="M75.6519 24.5931C94.358 24.5931 105.582 38.9546 105.582 56.4539C105.582 73.9532 94.358 88.3146 75.6519 88.3146C56.9458 88.3146 45.7221 73.9532 45.7221 56.4539C45.7221 38.9546 56.9458 24.5931 75.6519 24.5931ZM75.6519 77.6944C87.2376 77.6944 93.9959 68.1603 93.9959 56.4539C93.9959 44.7475 87.2376 35.2134 75.6519 35.2134C64.0662 35.2134 57.3078 44.7475 57.3078 56.4539C57.3078 68.1603 64.0662 77.6944 75.6519 77.6944Z" fill="currentColor"/>
  <path d="M41.0698 35.6961H23.6912V68.0396C23.6912 75.0393 25.1394 77.2117 31.8977 77.2117H41.0698V87.3492H30.9323C18.1397 87.3492 12.1054 82.6425 12.1054 69.2465V35.6961H0.519714V25.5586H12.1054V8.17999H23.6912V25.5586H41.0698V35.6961Z" fill="currentColor"/>
</svg>
