<svg width="16" height="14" viewBox="0 0 16 14" fill="none" xmlns="http://www.w3.org/2000/svg">
<path fill-rule="evenodd" clip-rule="evenodd" d="M7.89695 0.298362C7.25231 0.629979 6.73492 1.2374 6.55705 2.11803C6.35133 3.13654 5.56751 3.93977 4.55436 4.17033C1.77988 4.80169 1.82839 8.7709 4.61746 9.33427C5.63595 9.54 6.43917 10.3238 6.66971 11.337C6.86297 12.1863 7.36895 12.7711 7.99426 13.0937C6.59717 13.8124 4.60236 13.2357 4.17035 11.3371C3.9398 10.324 3.13658 9.54012 2.1181 9.33439C-0.670981 8.77102 -0.719487 4.80181 2.05499 4.17045C3.06815 3.9399 3.85197 3.13666 4.05769 2.11815C4.4486 0.182748 6.4794 -0.433027 7.89695 0.298362Z" fill="currentColor"/>
<path d="M11.8298 2.05504C11.3978 0.156511 9.40295 -0.420205 8.00586 0.298485C8.63117 0.621116 9.13715 1.20589 9.33041 2.05516C9.56096 3.06835 10.3642 3.85219 11.3827 4.05791C14.1717 4.62128 14.2202 8.59049 11.4458 9.22185C10.4326 9.45241 9.64879 10.2556 9.44307 11.2742C9.2652 12.1548 8.74781 12.7622 8.10317 13.0938C9.52072 13.8252 11.5515 13.2094 11.9424 11.274C12.1482 10.2555 12.932 9.45228 13.9451 9.22173C16.7196 8.59037 16.6711 4.62116 13.882 4.05779C12.8635 3.85206 12.0603 3.06822 11.8298 2.05504Z" fill="currentColor"/>
</svg>
