<svg width="16" height="16" viewBox="0 0 16 16" fill="none" xmlns="http://www.w3.org/2000/svg">
  <path fill-rule="evenodd" clip-rule="evenodd" d="M6 2.5C6 1.94772 6.44772 1.5 7 1.5H9C9.55228 1.5 10 1.94772 10 2.5H6ZM9 0.5C10.1046 0.5 11 1.39543 11 2.5H12.5H14V3.5H13V13.5C13 14.6046 12.1046 15.5 11 15.5H5C3.89543 15.5 3 14.6046 3 13.5V3.5H2V2.5H3.5H5C5 1.39543 5.89543 0.5 7 0.5H9ZM10.5 3.5H12V13.5C12 14.0523 11.5523 14.5 11 14.5H5C4.44772 14.5 4 14.0523 4 13.5V3.5H5.5H10.5ZM6 6.5V10.5H7V6.5H6ZM9 6.5V10.5H10V6.5H9Z" fill="currentColor"/>
</svg>
