<svg width="24" height="24" viewBox="0 0 24 24" fill="none" xmlns="http://www.w3.org/2000/svg">
  <path fillRule="evenodd" clipRule="evenodd" d="M2.99532 8.90619C5.82658 6.60463 8.39064 5.37181 11.0391 5.04838C11.4375 4.99681 12.8813 5.02494 13.4016 5.08588C15.8578 5.39056 18.2063 6.40775 20.4047 8.12338C21.5203 8.99525 22.636 10.0968 23.4938 11.1703C24.0422 11.8593 24.0844 11.9765 23.9016 12.2812C23.7516 12.5249 21.9047 14.3484 21.2578 14.8921C18.5813 17.1281 16.1391 18.389 13.5469 18.8765C12.9094 18.9937 11.0906 18.9937 10.4531 18.8765C7.22345 18.2671 3.98907 16.3265 0.834385 13.0874C-0.0421782 12.1921 -0.107803 12.0656 0.0984469 11.7187C0.267197 11.4328 2.24064 9.51556 2.99532 8.90619ZM19.4531 8.68588C17.3672 7.14838 15.1594 6.24838 12.9844 6.0515C11.611 5.92494 10.4625 6.06088 9.09376 6.51088C6.74064 7.289 4.32189 8.88744 1.8797 11.2828L1.14845 11.9999L1.87501 12.7124C5.63907 16.4156 9.56251 18.2999 12.7735 17.9578C15.4313 17.6718 18.2063 16.2421 21.1406 13.6453C21.7078 13.1437 22.8281 12.0374 22.8281 11.9765C22.8281 11.9531 22.6781 11.7515 22.4906 11.5312C21.6469 10.5374 20.475 9.43588 19.4531 8.68588ZM8.29219 10.5236C8.75625 9.31886 9.85781 8.38605 11.1797 8.08136C11.3719 8.03917 11.6719 8.02042 12.1172 8.03448C12.7125 8.04855 12.8156 8.06261 13.2281 8.20323C14.1094 8.49855 14.8125 9.03292 15.3188 9.7923C15.7734 10.472 15.9844 11.1704 15.9844 12.0001C15.9844 12.8251 15.7734 13.5282 15.3234 14.2032C14.7281 15.0892 13.8328 15.6986 12.7969 15.9189C12.4313 15.9939 11.6531 16.0032 11.2734 15.9329C9.96094 15.6892 8.76562 14.7095 8.29219 13.4767C8.09062 12.9517 8.01562 12.5673 8.01562 12.0001C8.01562 11.4329 8.09062 11.0486 8.29219 10.5236ZM14.8734 11.1329C14.55 10.1157 13.6453 9.28136 12.6328 9.07042C11.2875 8.78917 9.94687 9.43605 9.32812 10.6595C8.74687 11.8173 8.9625 13.1861 9.86719 14.0861C10.2469 14.4611 10.5797 14.672 11.0719 14.8501C11.3672 14.9532 11.4891 14.972 11.9766 14.9767C12.4313 14.9767 12.6 14.9579 12.8672 14.8736C13.3266 14.7282 13.7531 14.4657 14.1094 14.1095C14.4609 13.7532 14.6766 13.4157 14.85 12.9282C14.9531 12.6329 14.9719 12.5111 14.9766 12.0236C14.9766 11.5689 14.9578 11.4001 14.8734 11.1329Z" fill="currentColor" />
</svg>